<svg width="33" height="39" viewBox="0 0 33 39" fill="none" xmlns="http://www.w3.org/2000/svg">
<g clip-path="url(#clip0_96_1631)">
<path fill-rule="evenodd" clip-rule="evenodd" d="M19.777 13.8636C20.9726 13.2701 22.4936 12.3963 24.0167 11.1988C24.3377 11.8629 24.3732 12.4424 24.2075 12.9101C24.0902 13.2399 23.8691 13.5267 23.5789 13.7548C23.2644 14.0013 22.8714 14.1811 22.4372 14.2781C21.6132 14.4629 20.6509 14.3548 19.777 13.8633M19.9844 19.9457L21.5668 20.856C18.3357 22.6596 17.457 26.0084 16.4134 29.27C15.3701 26.0084 14.4914 22.6592 11.2602 20.856L12.8427 19.9457C13.1568 19.8275 13.3588 19.5216 13.3428 19.1876C13.1977 16.1328 14.0261 14.7818 15.1435 13.9339C15.5441 13.6301 15.9816 13.4777 16.4134 13.4777C16.8451 13.4777 17.2826 13.6301 17.6832 13.9339C18.8003 14.7822 19.6286 16.1328 19.4839 19.1876C19.468 19.5216 19.6703 19.8275 19.984 19.9457H19.9844ZM16.4137 0C18.243 0.0490085 20.077 0.402518 21.6685 1.09044C22.7708 1.56755 23.7989 2.19746 24.7304 2.95096C25.1509 3.29114 25.4972 3.61978 25.8786 3.99816C26.9074 4.03347 28.411 2.89547 29.1091 1.83061C27.9076 5.75237 22.4259 10.3833 18.6309 12.1556C18.6295 12.1548 18.6284 12.1541 18.6273 12.1534C17.9463 11.6356 17.1802 11.3765 16.4141 11.3765C15.648 11.3765 14.8819 11.6356 14.2009 12.1534C14.1998 12.1541 14.1987 12.1552 14.1972 12.1556C10.4015 10.3833 4.92018 5.75201 3.71875 1.83061C4.41681 2.89547 5.92004 4.03383 6.94886 3.99816C7.33027 3.62014 7.67659 3.29114 8.09709 2.95096C9.0282 2.19746 10.0566 1.56755 11.1589 1.09044C12.7508 0.402518 14.5844 0.0490085 16.4137 0ZM13.0505 13.8636C11.8552 13.2701 10.3338 12.3963 8.81071 11.1988C8.48973 11.8629 8.45426 12.4424 8.61964 12.9101C8.73689 13.2399 8.95799 13.5267 9.24822 13.7548C9.56305 14.0013 9.95605 14.1811 10.3903 14.2781C11.2143 14.4629 12.1765 14.3548 13.0501 13.8633" fill="black"/>
<path fill-rule="evenodd" clip-rule="evenodd" d="M25.686 9.73132C26.5244 8.88881 27.2634 7.9562 27.8572 7.12378L28.159 7.68918C29.1303 9.62429 29.6351 11.5518 29.6351 13.7208L29.633 17.163L29.651 18.9471C29.7213 23.3276 30.6733 27.7592 32.8294 31.8151L28.3183 28.1928L25.1265 33.3505L21.7734 30.2072L16.4147 38.8665L11.056 30.2075L7.7029 33.3509L4.51115 28.1931L0 31.8154C2.15606 27.7596 3.10779 23.3276 3.17836 18.9474L3.19645 17.1633L3.19428 13.7212C3.19428 11.5518 3.69874 9.62466 4.67037 7.68954L4.97182 7.12414C5.56602 7.9562 6.30461 8.88881 7.14307 9.73168L6.88108 10.2733C6.37228 11.3252 6.20401 12.5014 6.60026 13.6203C6.85574 14.3406 7.32184 14.9587 7.92292 15.4304C8.50662 15.8884 9.19745 16.1972 9.92047 16.3594C10.3916 16.4649 10.8715 16.5086 11.3484 16.4938C11.2373 17.1219 11.1885 17.773 11.1856 18.4368L6.93029 20.8844L10.214 22.7171C10.4763 22.8638 10.7264 23.0314 10.9609 23.2191C13.6681 25.6396 15.2958 32.8003 16.4143 36.2979C17.5329 32.8003 19.1606 25.6396 21.8678 23.2191C22.1023 23.0317 22.3524 22.8638 22.6147 22.7171L25.8984 20.8844L21.6431 18.4368C21.6398 17.773 21.5913 17.1219 21.4802 16.4938C21.9572 16.5086 22.437 16.4649 22.9082 16.3594C23.6312 16.1972 24.3221 15.8884 24.9058 15.4304C25.5068 14.9587 25.9729 14.3406 26.2284 13.6203C26.6247 12.5017 26.4564 11.3255 25.9476 10.2733L25.6856 9.73168L25.686 9.73132Z" fill="black"/>
</g>
<defs>
<clipPath id="clip0_96_1631">
<rect width="32.8294" height="38.867" fill="white"/>
</clipPath>
</defs>
</svg>
