<svg width="37" height="42" viewBox="0 0 37 42" fill="none" xmlns="http://www.w3.org/2000/svg">
<path d="M14.1779 9.43548C13.729 9.36553 13.71 9.35727 13.9213 9.32468C14.3262 9.26206 15.2822 9.34738 15.941 9.50475C17.4789 9.87214 18.8784 10.8132 20.3722 12.4845L20.7691 12.9286L21.3368 12.8369C23.7286 12.4507 26.1617 12.7576 28.1968 13.7023C28.7567 13.9622 29.6394 14.4796 29.7497 14.6126C29.7849 14.6549 29.8494 14.9277 29.893 15.2187C30.0442 16.2256 29.9686 16.9975 29.6621 17.5739C29.4953 17.8876 29.486 17.987 29.5981 18.2554C29.6877 18.4697 29.9371 18.6282 30.1843 18.6279C30.69 18.6272 31.2344 17.8057 31.4865 16.6626L31.5867 16.2085L31.7852 16.4344C32.8739 17.6739 33.729 19.3642 33.8758 20.5673L33.9141 20.881L33.7311 20.5958C33.4161 20.1051 33.0997 19.771 32.6945 19.5016C31.9641 19.0159 31.1918 18.8507 29.1465 18.7424C27.2992 18.6445 26.2537 18.486 25.217 18.1463C23.4532 17.5684 22.564 16.7988 20.4688 14.0364C19.5382 12.8095 18.963 12.1307 18.3909 11.584C17.0907 10.3418 15.8132 9.69037 14.1779 9.43548Z" fill="black"/>
<path d="M30.1662 12.1749C30.2127 11.3528 30.3236 10.8104 30.5467 10.3152C30.635 10.1192 30.7177 9.95874 30.7305 9.95874C30.7432 9.95874 30.7049 10.1034 30.6452 10.2803C30.483 10.7609 30.4564 11.4183 30.568 12.1831C30.7099 13.1536 30.7905 13.2936 31.8112 14.3419C32.29 14.8336 32.8469 15.4537 33.0487 15.72L33.4158 16.2041L33.0487 15.8581C32.5998 15.4351 31.5675 14.6099 31.3394 14.492C31.1866 14.4129 31.1639 14.4142 31.0695 14.5086C30.9826 14.5955 30.9643 14.7261 30.9522 15.3436C30.9335 16.3059 30.8029 16.9236 30.4879 17.5412C30.3175 17.8753 30.2906 17.804 30.4449 17.427C30.56 17.1454 30.5717 17.0217 30.5708 16.09C30.569 14.2182 30.3479 13.7682 29.051 12.9973C28.7224 12.802 28.1811 12.5203 27.8481 12.3714C27.515 12.2224 27.2504 12.0927 27.26 12.083C27.2967 12.0462 28.5615 12.4172 29.0706 12.6139C29.8278 12.9067 29.9528 12.9446 30.0448 12.9093C30.1064 12.8856 30.1362 12.7052 30.1662 12.1749Z" fill="black"/>
<path d="M15.0514 15.3769C14.14 14.1161 13.5761 12.1829 13.6982 10.7377L13.736 10.2905L13.9434 10.3285C14.333 10.4 15.0047 10.6512 15.3193 10.8432C16.1824 11.3699 16.5561 12.0635 16.9363 13.8444C17.0476 14.366 17.1937 14.9563 17.2609 15.1562C17.3692 15.4779 17.7781 16.2293 18.1106 16.7173C18.3501 17.0687 18.1911 17.2353 17.6616 17.1872C16.8531 17.1139 15.7579 16.3544 15.0514 15.3769Z" fill="black"/>
<path d="M29.062 24.7606C24.8028 23.0373 23.3027 21.5415 23.3027 19.0177C23.3027 18.6463 23.3155 18.3423 23.3309 18.3423C23.3465 18.3423 23.5113 18.465 23.6972 18.6148C24.5608 19.3109 25.528 19.6082 28.2055 20.0007C29.781 20.2317 30.6677 20.4183 31.4855 20.6908C34.0852 21.5572 35.6936 23.3154 36.0771 25.7101C36.1886 26.406 36.1232 27.7108 35.9425 28.3986C35.7998 28.9418 35.3645 29.9209 35.2491 29.9584C35.217 29.9688 35.1857 29.8456 35.1774 29.6778C35.1336 28.7786 34.6814 27.9032 33.922 27.2474C33.0586 26.5018 31.8985 25.9082 29.062 24.7606Z" fill="black"/>
<path d="M26.0722 25.4769C26.0188 25.1579 25.9263 24.7503 25.8665 24.5714L25.7579 24.246L25.9597 24.4737C26.239 24.7887 26.4598 25.1919 26.6469 25.7289C26.7897 26.1387 26.8057 26.2606 26.8046 26.9266C26.8036 27.5805 26.7857 27.7176 26.6539 28.0864C26.446 28.6681 26.1879 29.0806 25.7549 29.5234C24.9769 30.3191 23.9766 30.7596 22.5332 30.9424C22.2823 30.9741 21.551 31.0276 20.9081 31.0612C19.2877 31.1458 18.2214 31.3208 17.2632 31.6589C17.1254 31.7076 17.0024 31.7371 16.9899 31.7245C16.9511 31.6858 17.6036 31.2949 18.1424 31.0341C18.9022 30.6663 19.6586 30.4656 21.3533 30.182C22.1904 30.0419 23.055 29.8719 23.2745 29.8043C25.3476 29.1656 26.4132 27.5173 26.0722 25.4769Z" fill="black"/>
<path d="M28.0225 28.9613C27.4566 27.7388 27.3267 26.5586 27.6366 25.4578C27.6698 25.3402 27.7232 25.244 27.7553 25.244C27.7873 25.244 27.9209 25.3165 28.052 25.4052C28.3128 25.5816 28.8357 25.8787 30.2291 26.6421C31.9679 27.5947 32.9592 28.3323 33.6334 29.175C34.2237 29.9131 34.5891 30.7537 34.765 31.7787C34.8645 32.3594 34.8062 33.7564 34.6579 34.3411C34.1904 36.1846 33.1039 37.6326 31.5542 38.4776C31.3272 38.6014 31.1234 38.7031 31.1013 38.7035C31.0793 38.7039 31.162 38.4926 31.2851 38.2337C31.8065 37.1387 31.8658 36.0735 31.4717 34.8879C31.2304 34.1619 30.7383 33.2761 29.7449 31.779C28.5898 30.0384 28.3066 29.5751 28.0225 28.9613Z" fill="black"/>
<path d="M12.0253 35.5571C13.6058 34.216 15.5724 33.2633 17.3638 32.9709C18.1358 32.8448 19.4219 32.8948 20.1368 33.0787C21.2828 33.3734 22.3078 34.0335 22.841 34.8199C23.362 35.5885 23.5855 36.2583 23.8183 37.7485C23.91 38.3363 24.0099 38.9266 24.0401 39.0603C24.2148 39.8326 24.555 40.4499 24.9764 40.76C25.6458 41.2523 26.7985 41.2829 27.9323 40.8385C28.1248 40.763 28.2919 40.7109 28.3036 40.7227C28.3447 40.7637 27.7738 41.1478 27.371 41.35C26.829 41.622 26.398 41.7272 25.8253 41.7272C24.7868 41.7272 23.9246 41.1963 23.2052 40.1138C23.0636 39.9008 22.7454 39.2627 22.498 38.6959C21.7385 36.9549 21.3633 36.4245 20.4814 35.8441C19.7138 35.339 18.724 35.2486 17.9793 35.6155C17.0012 36.0974 16.7282 37.3535 17.4288 38.1496C17.7072 38.466 18.2265 38.7389 18.6511 38.7919C19.4454 38.8912 20.1281 38.284 20.1281 37.4781C20.1281 36.9548 19.9279 36.6562 19.4241 36.4277C18.7359 36.1157 17.9962 36.4804 17.9998 37.1301C18.0013 37.4071 18.1213 37.581 18.3976 37.7067C18.5749 37.7873 18.5791 37.7937 18.4344 37.7635C17.803 37.6319 17.6551 36.867 18.1628 36.3592C18.7723 35.7496 20.0327 36.0186 20.4655 36.8507C20.6473 37.2002 20.6685 37.8963 20.51 38.3166C20.1551 39.2574 19.1206 39.7521 18.0711 39.4829C17.3567 39.2996 17.0658 39.1012 16.2043 38.2095C14.7074 36.66 14.1263 36.3597 11.9682 36.0212L11.5547 35.9563L12.0253 35.5571Z" fill="black"/>
<path fill-rule="evenodd" clip-rule="evenodd" d="M0.738167 0.847473C5.73718 6.94442 13.4441 16.437 13.8268 16.9685C14.1427 17.4073 14.0238 17.8018 13.4826 18.1109C13.1816 18.2829 12.5628 18.4571 12.253 18.4571C11.9026 18.4571 11.5079 18.2875 11.2204 18.0135C11.0172 17.8198 10.1972 16.5893 8.30408 13.6376C6.85558 11.379 5.64336 9.50542 5.61032 9.47407C5.53386 9.40149 5.53517 9.40396 8.1564 14.1169C9.8023 17.0763 10.3579 18.1226 10.3579 18.2625C10.3579 18.5471 10.2807 18.6967 9.93131 19.0883C9.34887 19.7413 9.08854 20.4749 8.90059 21.9932C8.68982 23.6953 8.09738 24.8976 6.45548 26.9553C5.49437 28.1599 5.33708 28.3806 5.09457 28.8661C4.78906 29.4774 4.70507 29.8199 4.67103 30.5919C4.63507 31.4081 4.70515 31.9354 4.95334 32.7158C5.17056 33.3991 5.39732 33.8502 5.97707 34.7526C6.47737 35.5313 6.76552 36.11 6.76552 36.3363C6.76552 36.5164 6.79972 36.5167 7.57503 36.3408C9.43032 35.9197 10.9369 35.1792 11.7842 34.2718C12.3086 33.7101 12.4317 33.4 12.4357 32.6303C12.4383 32.1268 12.4207 32.0214 12.2853 31.7318C12.0648 31.2604 11.6635 30.8685 10.7789 30.2609C9.61996 29.4647 9.12496 28.8237 8.98818 27.9423C8.876 27.219 9.00616 26.7087 9.64731 25.3583C10.311 23.9606 10.4754 23.365 10.5867 21.9561C10.6585 21.0458 10.758 20.6868 11.0183 20.3987C11.2897 20.0982 11.534 19.9965 12.2058 19.9043C13.3009 19.7539 13.9982 19.4692 14.5714 18.9385C15.0687 18.478 15.2767 18.0343 15.3087 17.3664L15.3329 16.8602L15.0551 16.5347C14.0488 15.3556 0.0642685 -0.0793457 0.00233584 -0.0793457C-0.0108882 -0.0793457 0.320244 0.337752 0.738167 0.847473ZM7.33037 31.5155C7.55789 31.1106 7.43702 30.59 7.05644 30.3358C6.69683 30.0955 6.13821 30.2087 6.13821 30.5218C6.13821 30.6173 6.19084 30.6869 6.30933 30.7482C6.5088 30.8513 6.52332 30.9673 6.36634 31.2044C6.20736 31.4446 6.22019 31.6557 6.40253 31.7991C6.69644 32.0304 7.11245 31.9032 7.33037 31.5155Z" fill="black"/>
<path fill-rule="evenodd" clip-rule="evenodd" d="M16.0245 20.1696C15.5104 20.3283 15.0107 20.8758 14.8559 21.45C14.7615 21.8002 14.8151 22.4146 14.9565 22.6044C15.1849 22.9108 15.4057 22.9916 16.0037 22.9873C17.1745 22.9792 18.1923 22.4746 18.3106 21.8437C18.4077 21.3267 17.9606 20.61 17.3449 20.2955C17.0272 20.1332 16.3514 20.0688 16.0245 20.1696ZM17.3932 21.2451C17.5737 20.9873 17.4947 20.7087 17.1877 20.5202C16.6029 20.1614 15.7186 20.4583 15.7186 21.0135C15.7186 21.2898 16.1797 21.5913 16.6025 21.5913C16.8838 21.5913 17.2688 21.4227 17.3932 21.2451Z" fill="black"/>
</svg>
