<svg width="35" height="40" viewBox="0 0 35 40" fill="none" xmlns="http://www.w3.org/2000/svg">
<path fill-rule="evenodd" clip-rule="evenodd" d="M13.1625 3.01424C10.8775 4.2203 9.00817 5.24099 9.00864 5.28254C9.00971 5.38962 14.4924 8.20344 14.687 8.1966C14.7755 8.19364 15.4176 7.89403 16.114 7.53108L17.3802 6.87116L18.7629 7.59147L20.1457 8.31192L22.4102 7.28081C25.8224 5.72705 26.1767 5.55678 26.1213 5.49966C26.0475 5.42371 24.8237 4.75757 21.5033 2.98607C19.8986 2.12989 18.341 1.29052 18.042 1.12057C17.7428 0.95045 17.4574 0.813798 17.4075 0.816444C17.3576 0.81909 15.4473 1.80803 13.1623 3.01408L13.1625 3.01424ZM3.14091 8.27286L0.76242 9.51798V14.982C0.76242 17.9873 0.793599 20.4461 0.831996 20.4461C0.870394 20.4461 2.04044 19.932 3.43242 19.3037L5.96342 18.1613V12.4018L7.20027 13.0846C8.1533 13.6104 9.10709 14.1349 10.0612 14.6585L11.6852 15.5495L12.4079 15.2183C12.8611 15.0102 13.3134 14.8003 13.7648 14.5881C14.1136 14.4235 14.9699 14.0326 15.6677 13.7195C16.3654 13.4062 17.0113 13.091 17.1028 13.0193C17.2244 12.9239 15.7411 12.0932 11.6161 9.94661C8.50686 8.32858 5.86312 7.00984 5.74117 7.01622C5.61922 7.0226 4.44918 7.58789 3.14091 8.2727V8.27286ZM26.5496 8.62243C24.9297 9.36343 23.6032 9.99938 23.6016 10.0356C23.6002 10.0719 24.4831 10.6039 25.5637 11.2177C26.6442 11.8317 27.5284 12.3668 27.5284 12.4071C27.5284 12.4474 26.5722 12.9169 25.4037 13.4507C24.2349 13.9844 21.2809 15.3363 18.839 16.4549L10.6568 20.2027C8.59855 21.1456 6.74334 21.9954 6.534 22.0914C2.32995 24.0199 1.1745 24.555 1.01584 24.6468C0.856263 24.7393 0.82017 25.2766 0.791756 27.9732L0.757812 31.1895L2.88487 32.2877L5.01178 33.3859L7.96116 32.0371C9.58337 31.2953 10.9105 30.6496 10.9105 30.6019C10.9105 30.5543 10.6107 30.3567 10.2446 30.162C9.87826 29.9672 9.12183 29.5364 8.56369 29.2041C8.00554 28.8719 7.44909 28.5671 7.32683 28.5266C7.20473 28.4863 7.10658 28.4158 7.10858 28.3698C7.11058 28.3238 8.40933 27.6988 9.99453 26.9805C13.0734 25.5855 15.4296 24.5103 20.4881 22.1924C22.75 21.156 25.0123 20.1207 27.2747 19.0853C29.2631 18.1758 31.5751 17.1137 32.4123 16.7249L33.9345 16.0181L33.9683 12.7653L34.0022 9.51253L31.8449 8.39052C30.6583 7.77341 29.6441 7.27007 29.591 7.27194C29.5379 7.27365 28.1691 7.88142 26.5493 8.62258L26.5496 8.62243ZM33.3567 20.3575C33.0388 20.5149 32.4109 20.8095 31.9613 21.0122C31.5118 21.2148 30.6588 21.6049 30.0656 21.8791L28.9874 22.3774L28.9628 25.2331C28.9493 26.8037 28.8922 28.0818 28.836 28.0736C28.7083 28.0543 26.6874 27.004 24.656 25.901C23.1899 25.1049 23.0977 25.0733 22.7532 25.2462C22.554 25.3463 21.3635 25.8873 20.1076 26.4487C18.8517 27.0101 17.7833 27.5061 17.733 27.5509C17.6829 27.5958 20.2104 28.9839 23.3499 30.636L29.0579 33.6397L31.4963 32.3615C32.8373 31.6586 33.9775 31.0174 34.03 30.9367C34.1483 30.7554 34.1382 20.0464 34.0197 20.0609C33.9729 20.0667 33.6745 20.2 33.3565 20.3574L33.3567 20.3575ZM19.8539 32.9272C19.4309 33.1115 19.0081 33.2961 18.5854 33.4808C17.3089 34.0405 17.559 34.059 16.0403 33.293C15.0287 32.7828 14.5927 32.6253 14.4035 32.7017C14.2615 32.759 13.0397 33.316 11.6883 33.9395C10.3369 34.563 9.18434 35.073 9.12705 35.073C8.56 35.073 9.50273 35.6438 13.14 37.503L17.4058 39.6834L19.2007 38.7855C20.1878 38.2917 22.1789 37.3026 23.6254 36.5879C25.0718 35.8729 26.2374 35.2693 26.2156 35.2466C26.1936 35.2238 24.9816 34.5932 23.5222 33.8452L20.8687 32.4852L19.8539 32.9275V32.9272Z" fill="black"/>
</svg>
