<svg width="43" height="37" viewBox="0 0 43 37" fill="none" xmlns="http://www.w3.org/2000/svg">
<path fill-rule="evenodd" clip-rule="evenodd" d="M38.7763 0.746C39.3007 0.574277 39.8588 0.551092 40.3927 0.678857C40.9266 0.806621 41.4167 1.08067 41.812 1.47246C42.2073 1.86426 42.4933 2.3595 42.6403 2.90661C42.7874 3.45373 42.79 4.03274 42.648 4.58336L35.2516 33.2145C34.5356 35.976 31.4164 37.301 29.0711 35.6673C27.1093 34.3006 24.2016 32.206 21.6111 30.0627C20.3159 28.99 16.3609 25.5733 17.087 23.4802C17.7101 21.6908 25.4965 15.4867 29.9611 11.7823C31.7136 10.3269 31.073 9.32949 29.0436 10.6284C24.0041 13.8535 15.9426 18.7198 13.3035 20.0543C10.9754 21.2309 9.80815 21.3583 8.46204 20.9908C6.00612 20.3212 3.75408 19.4322 1.94166 18.4381C-0.507499 17.0952 -0.0352513 13.4638 2.49393 12.6348L38.7763 0.746Z" fill="black"/>
</svg>
