<svg width="143" height="38" viewBox="0 0 143 38" fill="none" xmlns="http://www.w3.org/2000/svg">
<path d="M13.9561 12.0332L23.7319 28.3946H4.18029L13.9561 12.0332Z" fill="#3A1712"/>
<path d="M30.1904 20.4023L22.1721 7.18004L38.2088 7.18004L30.1904 20.4023Z" fill="#3A1712"/>
<path d="M126.814 18.7652C126.814 17.252 127.155 15.92 127.837 14.7691C128.541 13.6182 129.489 12.7231 130.683 12.0837C131.876 11.423 133.23 11.0927 134.743 11.0927C136.256 11.0927 137.599 11.423 138.771 12.0837C139.964 12.7231 140.913 13.6182 141.616 14.7691C142.319 15.92 142.671 17.252 142.671 18.7652C142.671 20.2571 142.319 21.5891 141.616 22.7613C140.913 23.9122 139.964 24.818 138.771 25.4787C137.599 26.1181 136.256 26.4377 134.743 26.4377C133.23 26.4377 131.876 26.1181 130.683 25.4787C129.489 24.818 128.541 23.9122 127.837 22.7613C127.155 21.5891 126.814 20.2571 126.814 18.7652ZM130.363 18.7652C130.363 19.6816 130.555 20.4915 130.938 21.1948C131.322 21.8768 131.844 22.4203 132.505 22.8253C133.166 23.2089 133.912 23.4007 134.743 23.4007C135.553 23.4007 136.288 23.2089 136.949 22.8253C137.631 22.4203 138.163 21.8768 138.547 21.1948C138.931 20.4915 139.122 19.6816 139.122 18.7652C139.122 17.8488 138.931 17.0389 138.547 16.3356C138.163 15.6322 137.631 15.0888 136.949 14.7051C136.288 14.3215 135.553 14.1297 134.743 14.1297C133.912 14.1297 133.166 14.3215 132.505 14.7051C131.844 15.0888 131.322 15.6322 130.938 16.3356C130.555 17.0389 130.363 17.8488 130.363 18.7652Z" fill="#3A1712"/>
<path d="M110.988 11.4136H114.761L118.597 20.9084L122.433 11.4136H126.237L118.597 27.462L110.988 11.4136Z" fill="#3A1712"/>
<path d="M94.5645 18.7652C94.5645 17.252 94.9055 15.92 95.5875 14.7691C96.2908 13.6182 97.2392 12.7231 98.4327 12.0837C99.6262 11.423 100.98 11.0927 102.493 11.0927C104.006 11.0927 105.349 11.423 106.521 12.0837C107.714 12.7231 108.663 13.6182 109.366 14.7691C110.069 15.92 110.421 17.252 110.421 18.7652C110.421 20.2571 110.069 21.5891 109.366 22.7613C108.663 23.9122 107.714 24.818 106.521 25.4787C105.349 26.1181 104.006 26.4377 102.493 26.4377C100.98 26.4377 99.6262 26.1181 98.4327 25.4787C97.2392 24.818 96.2908 23.9122 95.5875 22.7613C94.9055 21.5891 94.5645 20.2571 94.5645 18.7652ZM98.113 18.7652C98.113 19.6816 98.3048 20.4915 98.6884 21.1948C99.0721 21.8768 99.5942 22.4203 100.255 22.8253C100.916 23.2089 101.662 23.4007 102.493 23.4007C103.303 23.4007 104.038 23.2089 104.699 22.8253C105.381 22.4203 105.913 21.8768 106.297 21.1948C106.681 20.4915 106.872 19.6816 106.872 18.7652C106.872 17.8488 106.681 17.0389 106.297 16.3356C105.913 15.6322 105.381 15.0888 104.699 14.7051C104.038 14.3215 103.303 14.1297 102.493 14.1297C101.662 14.1297 100.916 14.3215 100.255 14.7051C99.5942 15.0888 99.0721 15.6322 98.6884 16.3356C98.3048 17.0389 98.113 17.8488 98.113 18.7652Z" fill="#3A1712"/>
<path d="M87.7245 17.1668C87.7245 16.0798 87.5007 15.2593 87.0532 14.7051C86.6056 14.151 85.913 13.874 84.9752 13.874C84.3358 13.874 83.771 14.0125 83.2808 14.2895C82.7907 14.5453 82.407 14.9289 82.13 15.4404C81.8529 15.9306 81.7144 16.5061 81.7144 17.1668V26.1181H78.2617V11.4123H81.7144V13.6821C82.1832 12.8083 82.78 12.1583 83.5046 11.732C84.2506 11.3058 85.135 11.0927 86.158 11.0927C87.8204 11.0927 89.0885 11.6042 89.9624 12.6272C90.8362 13.6289 91.2731 15.0142 91.2731 16.7831V26.1181H87.7245V17.1668Z" fill="#3A1712"/>
<path d="M65.3715 21.2907C65.8403 21.8022 66.3092 22.2498 66.7781 22.6334C67.2683 22.9958 67.7585 23.2728 68.2487 23.4646C68.7389 23.6351 69.2291 23.7204 69.7192 23.7204C70.3373 23.7204 70.8168 23.5819 71.1578 23.3048C71.5202 23.0277 71.7013 22.6441 71.7013 22.1539C71.7013 21.7277 71.5628 21.3653 71.2857 21.067C71.0087 20.7473 70.625 20.4809 70.1348 20.2677C69.6446 20.0333 69.0692 19.7989 68.4085 19.5644C67.7478 19.3087 67.0871 19.0103 66.4264 18.6693C65.7871 18.307 65.2542 17.8381 64.828 17.2627C64.4231 16.6872 64.2206 15.9626 64.2206 15.0888C64.2206 14.1936 64.4444 13.4477 64.8919 12.8509C65.3608 12.2542 65.9789 11.8173 66.7461 11.5402C67.5347 11.2418 68.3765 11.0927 69.2717 11.0927C70.0816 11.0927 70.8382 11.2099 71.5415 11.4443C72.2661 11.6787 72.9161 11.9878 73.4916 12.3714C74.067 12.755 74.5572 13.1919 74.9622 13.6821L73.044 15.7281C72.5538 15.1527 71.9677 14.6838 71.2857 14.3215C70.6037 13.9592 69.9004 13.778 69.1758 13.778C68.6856 13.778 68.2806 13.8846 67.961 14.0977C67.6413 14.3109 67.4814 14.6199 67.4814 15.0248C67.4814 15.3658 67.6199 15.6749 67.897 15.9519C68.1954 16.2077 68.579 16.4421 69.0479 16.6552C69.5381 16.8684 70.0816 17.0922 70.6783 17.3266C71.4882 17.6463 72.2341 17.9979 72.9161 18.3816C73.5981 18.7652 74.1416 19.2341 74.5466 19.7882C74.9728 20.3423 75.1859 21.067 75.1859 21.9621C75.1859 23.3474 74.7064 24.4663 73.7473 25.3188C72.8096 26.15 71.5308 26.5656 69.9111 26.5656C68.9094 26.5656 67.9823 26.4164 67.1298 26.1181C66.2986 25.7984 65.5633 25.3934 64.9239 24.9032C64.3058 24.3917 63.7837 23.8589 63.3574 23.3048L65.3715 21.2907Z" fill="#3A1712"/>
<path d="M45.5742 18.7652C45.5742 17.252 45.9152 15.92 46.5972 14.7691C47.3005 13.6182 48.249 12.7231 49.4425 12.0837C50.636 11.423 51.9893 11.0927 53.5025 11.0927C55.0157 11.0927 56.3584 11.423 57.5306 12.0837C58.7241 12.7231 59.6725 13.6182 60.3758 14.7691C61.0792 15.92 61.4308 17.252 61.4308 18.7652C61.4308 20.2571 61.0792 21.5891 60.3758 22.7613C59.6725 23.9122 58.7241 24.818 57.5306 25.4787C56.3584 26.1181 55.0157 26.4377 53.5025 26.4377C51.9893 26.4377 50.636 26.1181 49.4425 25.4787C48.249 24.818 47.3005 23.9122 46.5972 22.7613C45.9152 21.5891 45.5742 20.2571 45.5742 18.7652ZM49.1228 18.7652C49.1228 19.6816 49.3146 20.4915 49.6982 21.1948C50.0818 21.8768 50.604 22.4203 51.2647 22.8253C51.9254 23.2089 52.6713 23.4007 53.5025 23.4007C54.3124 23.4007 55.0477 23.2089 55.7084 22.8253C56.3904 22.4203 56.9232 21.8768 57.3068 21.1948C57.6905 20.4915 57.8823 19.6816 57.8823 18.7652C57.8823 17.8488 57.6905 17.0389 57.3068 16.3356C56.9232 15.6322 56.3904 15.0888 55.7084 14.7051C55.0477 14.3215 54.3124 14.1297 53.5025 14.1297C52.6713 14.1297 51.9254 14.3215 51.2647 14.7051C50.604 15.0888 50.0818 15.6322 49.6982 16.3356C49.3146 17.0389 49.1228 17.8488 49.1228 18.7652Z" fill="#3A1712"/>
</svg>
