<svg width="177" height="66" viewBox="0 0 177 66" fill="none" xmlns="http://www.w3.org/2000/svg">
<g clip-path="url(#clip0_5_1188)" filter="url(#filter0_d_5_1188)">
<mask id="mask0_5_1188" style="mask-type:luminance" maskUnits="userSpaceOnUse" x="8" y="12" width="44" height="42">
<path d="M34.647 28.365C32.0975 24.7769 29.3522 21.9316 26.3081 18.5542L8 27.9758V30.0823L26.0903 21.3522L34.6342 29.7465L34.647 28.3646M34.647 33.3006C32.0975 30.0962 29.3522 27.5546 26.3081 24.5381L8 32.9533V34.8358L26.0903 27.0385L34.6329 34.5352L34.647 33.3006ZM34.647 38.2478C32.0975 35.4495 29.3522 33.2297 26.3081 30.5963L8 37.9445V39.5873L26.0903 32.7788L34.6342 39.3245L34.647 38.2478ZM34.647 42.9522C32.0975 40.0539 29.3522 37.755 26.3081 35.0267L8 42.6383V44.3396C9.66969 43.689 15.6998 41.3382 26.0903 37.2872L34.6329 44.069L34.647 42.9522ZM34.647 47.9222C32.0975 45.4769 29.3522 43.5377 26.3081 41.2364L8 47.657V49.0922L26.0903 43.1432L34.6329 48.8637L34.647 47.9222ZM34.647 52.9975C32.0975 51.2268 29.3522 49.8228 26.3081 48.1564L8 52.8063V53.8457L26.0903 49.538L34.6329 53.6791L34.647 52.9975ZM35.8786 36.6332L46.8109 30.6329L51.9738 36.4014C51.9738 36.4014 51.9826 35.3304 52 33.1891C51.9543 33.2073 51.568 32.899 50.8412 32.2642V33.6279L46.9424 28.7144L35.8792 35.1871L35.8786 36.6332ZM51.9829 38.6012C50.4414 36.4329 48.784 34.7134 46.9437 32.6724L35.8792 38.3672V39.64L46.8115 34.3643L51.9744 39.4372L51.9829 38.6012ZM51.9829 41.584C50.4414 39.6473 48.784 38.1114 46.9437 36.2886L35.8792 41.3752V42.5122L46.8115 37.8002L51.9744 42.3313L51.9829 41.584ZM51.9829 44.5735C50.4414 42.8825 48.784 41.5413 46.9437 39.9497L35.8792 44.3914V45.3842L46.8115 41.2698L51.9744 45.226L51.9829 44.5735ZM51.9829 47.4167C50.4414 45.6648 48.784 44.2756 46.9437 42.6268L35.8792 47.2279V48.2561L46.8115 43.9941L51.9744 48.0925L51.9829 47.4167ZM51.9829 50.4198C50.4414 48.9422 48.784 47.7703 46.9437 46.3794L35.8792 50.2607V51.1281L46.8109 47.5334L51.9738 50.9905C51.9738 50.9905 51.9764 50.8002 51.9816 50.4211L51.9829 50.4198ZM51.9829 53.4869C50.4414 52.4169 48.784 51.5684 46.9437 50.5614L35.8792 53.3721V54L46.8115 51.3969L51.9744 53.9L51.9829 53.4869ZM8 25.1081L26.0903 15.1814L34.6342 24.7272L34.6775 19.4109C34.6016 19.4406 33.9624 18.9304 32.7597 17.8803V20.1355L26.3081 12L8 22.7141V25.1081Z" fill="white"/>
</mask>
<g mask="url(#mask0_5_1188)">
<path d="M63.8279 12H-3.82812V75.2133H63.8279V12Z" fill="#825808"/>
</g>
</g>
<path d="M56.3189 44.224C55.9135 44.224 55.6042 44.1173 55.3909 43.904C55.1775 43.6693 55.0709 43.3387 55.0709 42.912V22.56C55.0709 22.1333 55.1775 21.8027 55.3909 21.568C55.6042 21.3333 55.8815 21.216 56.2229 21.216C56.5642 21.216 56.8095 21.28 56.9589 21.408C57.1295 21.5147 57.3215 21.7173 57.5349 22.016L71.4869 40.608H70.7189V22.496C70.7189 22.0907 70.8255 21.7813 71.0389 21.568C71.2522 21.3333 71.5615 21.216 71.9669 21.216C72.3509 21.216 72.6389 21.3333 72.8309 21.568C73.0442 21.7813 73.1509 22.0907 73.1509 22.496V42.944C73.1509 43.3493 73.0549 43.6693 72.8629 43.904C72.6922 44.1173 72.4362 44.224 72.0949 44.224C71.7749 44.224 71.5189 44.16 71.3269 44.032C71.1349 43.904 70.9322 43.7013 70.7189 43.424L56.7989 24.832H57.5349V42.912C57.5349 43.3387 57.4282 43.6693 57.2149 43.904C57.0015 44.1173 56.7029 44.224 56.3189 44.224ZM77.1264 44.16C76.6997 44.16 76.3797 44.0427 76.1664 43.808C75.953 43.552 75.8464 43.2 75.8464 42.752V29.664C75.8464 29.216 75.953 28.8747 76.1664 28.64C76.3797 28.4053 76.6997 28.288 77.1264 28.288C77.5317 28.288 77.8517 28.4053 78.0864 28.64C78.321 28.8747 78.4384 29.216 78.4384 29.664V42.752C78.4384 43.2 78.321 43.552 78.0864 43.808C77.873 44.0427 77.553 44.16 77.1264 44.16ZM77.1264 24.704C76.593 24.704 76.177 24.5653 75.8784 24.288C75.5797 23.9893 75.4304 23.5947 75.4304 23.104C75.4304 22.592 75.5797 22.208 75.8784 21.952C76.177 21.6747 76.593 21.536 77.1264 21.536C77.681 21.536 78.097 21.6747 78.3744 21.952C78.673 22.208 78.8224 22.592 78.8224 23.104C78.8224 23.5947 78.673 23.9893 78.3744 24.288C78.097 24.5653 77.681 24.704 77.1264 24.704ZM87.3159 44.288C85.7585 44.288 84.4145 43.9467 83.2839 43.264C82.1532 42.5813 81.2785 41.632 80.6599 40.416C80.0625 39.1787 79.7639 37.7493 79.7639 36.128C79.7639 34.8907 79.9345 33.7813 80.2759 32.8C80.6172 31.8187 81.1185 30.9867 81.7799 30.304C82.4412 29.6 83.2305 29.0667 84.1479 28.704C85.0865 28.3413 86.1425 28.16 87.3159 28.16C88.0839 28.16 88.8839 28.2773 89.7159 28.512C90.5479 28.7467 91.3052 29.152 91.9879 29.728C92.2012 29.8773 92.3399 30.0587 92.4039 30.272C92.4679 30.4853 92.4679 30.6987 92.4039 30.912C92.3399 31.104 92.2332 31.2747 92.0839 31.424C91.9345 31.552 91.7425 31.6267 91.5079 31.648C91.2945 31.6693 91.0705 31.5947 90.8359 31.424C90.2812 30.9973 89.7159 30.6987 89.1399 30.528C88.5639 30.3573 88.0092 30.272 87.4759 30.272C86.6439 30.272 85.9185 30.4107 85.2999 30.688C84.6812 30.944 84.1585 31.3173 83.7319 31.808C83.3052 32.2987 82.9745 32.9067 82.7399 33.632C82.5265 34.3573 82.4199 35.2 82.4199 36.16C82.4199 38.016 82.8572 39.488 83.7319 40.576C84.6065 41.6427 85.8545 42.176 87.4759 42.176C88.0092 42.176 88.5532 42.0907 89.1079 41.92C89.6839 41.7493 90.2599 41.4507 90.8359 41.024C91.0705 40.8533 91.2945 40.7787 91.5079 40.8C91.7212 40.8213 91.9025 40.9067 92.0519 41.056C92.2012 41.184 92.2972 41.3547 92.3399 41.568C92.4039 41.7813 92.4039 41.9947 92.3399 42.208C92.2759 42.4 92.1372 42.5707 91.9239 42.72C91.2412 43.2747 90.4945 43.68 89.6839 43.936C88.8732 44.1707 88.0839 44.288 87.3159 44.288ZM99.6719 44.288C98.0292 44.288 96.6105 43.968 95.4159 43.328C94.2425 42.6667 93.3252 41.7387 92.6639 40.544C92.0239 39.3493 91.7039 37.92 91.7039 36.256C91.7039 34.6347 92.0239 33.2267 92.6639 32.032C93.3039 30.816 94.1785 29.8667 95.2879 29.184C96.4185 28.5013 97.7199 28.16 99.1919 28.16C100.237 28.16 101.176 28.3413 102.008 28.704C102.84 29.0453 103.544 29.5467 104.12 30.208C104.717 30.8693 105.165 31.6693 105.464 32.608C105.784 33.5467 105.944 34.6027 105.944 35.776C105.944 36.1173 105.848 36.3733 105.656 36.544C105.464 36.6933 105.187 36.768 104.824 36.768H93.6879V35.072H104.216L103.704 35.488C103.704 34.336 103.533 33.3653 103.192 32.576C102.851 31.7653 102.349 31.1467 101.688 30.72C101.048 30.2933 100.237 30.08 99.2559 30.08C98.1679 30.08 97.2399 30.336 96.4719 30.848C95.7252 31.3387 95.1599 32.032 94.7759 32.928C94.3919 33.8027 94.1999 34.8267 94.1999 36V36.192C94.1999 38.1547 94.6692 39.648 95.6079 40.672C96.5679 41.696 97.9225 42.208 99.6719 42.208C100.397 42.208 101.112 42.112 101.816 41.92C102.541 41.728 103.245 41.408 103.928 40.96C104.227 40.768 104.493 40.6827 104.728 40.704C104.984 40.704 105.187 40.7787 105.336 40.928C105.485 41.056 105.581 41.2267 105.624 41.44C105.688 41.632 105.667 41.8453 105.56 42.08C105.475 42.3147 105.293 42.5173 105.016 42.688C104.312 43.2 103.48 43.5947 102.52 43.872C101.56 44.1493 100.611 44.288 99.6719 44.288ZM121.433 44.224C121.028 44.224 120.697 44.128 120.441 43.936C120.185 43.744 119.982 43.456 119.833 43.072L111.033 22.944C110.884 22.5813 110.841 22.2827 110.905 22.048C110.969 21.792 111.108 21.5893 111.321 21.44C111.556 21.2907 111.822 21.216 112.121 21.216C112.526 21.216 112.825 21.312 113.017 21.504C113.23 21.6747 113.401 21.9307 113.529 22.272L121.977 41.888H120.953L129.369 22.24C129.518 21.92 129.7 21.6747 129.913 21.504C130.126 21.312 130.425 21.216 130.809 21.216C131.108 21.216 131.353 21.2907 131.545 21.44C131.758 21.5893 131.886 21.792 131.929 22.048C131.993 22.304 131.95 22.6027 131.801 22.944L123.001 43.072C122.852 43.456 122.649 43.744 122.393 43.936C122.158 44.128 121.838 44.224 121.433 44.224ZM134.358 44.16C133.931 44.16 133.611 44.0427 133.398 43.808C133.184 43.552 133.078 43.2 133.078 42.752V29.664C133.078 29.216 133.184 28.8747 133.398 28.64C133.611 28.4053 133.931 28.288 134.358 28.288C134.763 28.288 135.083 28.4053 135.318 28.64C135.552 28.8747 135.67 29.216 135.67 29.664V42.752C135.67 43.2 135.552 43.552 135.318 43.808C135.104 44.0427 134.784 44.16 134.358 44.16ZM134.358 24.704C133.824 24.704 133.408 24.5653 133.11 24.288C132.811 23.9893 132.662 23.5947 132.662 23.104C132.662 22.592 132.811 22.208 133.11 21.952C133.408 21.6747 133.824 21.536 134.358 21.536C134.912 21.536 135.328 21.6747 135.606 21.952C135.904 22.208 136.054 22.592 136.054 23.104C136.054 23.5947 135.904 23.9893 135.606 24.288C135.328 24.5653 134.912 24.704 134.358 24.704ZM144.963 44.288C143.32 44.288 141.902 43.968 140.707 43.328C139.534 42.6667 138.616 41.7387 137.955 40.544C137.315 39.3493 136.995 37.92 136.995 36.256C136.995 34.6347 137.315 33.2267 137.955 32.032C138.595 30.816 139.47 29.8667 140.579 29.184C141.71 28.5013 143.011 28.16 144.483 28.16C145.528 28.16 146.467 28.3413 147.299 28.704C148.131 29.0453 148.835 29.5467 149.411 30.208C150.008 30.8693 150.456 31.6693 150.755 32.608C151.075 33.5467 151.235 34.6027 151.235 35.776C151.235 36.1173 151.139 36.3733 150.947 36.544C150.755 36.6933 150.478 36.768 150.115 36.768H138.979V35.072H149.507L148.995 35.488C148.995 34.336 148.824 33.3653 148.483 32.576C148.142 31.7653 147.64 31.1467 146.979 30.72C146.339 30.2933 145.528 30.08 144.547 30.08C143.459 30.08 142.531 30.336 141.763 30.848C141.016 31.3387 140.451 32.032 140.067 32.928C139.683 33.8027 139.491 34.8267 139.491 36V36.192C139.491 38.1547 139.96 39.648 140.899 40.672C141.859 41.696 143.214 42.208 144.963 42.208C145.688 42.208 146.403 42.112 147.107 41.92C147.832 41.728 148.536 41.408 149.219 40.96C149.518 40.768 149.784 40.6827 150.019 40.704C150.275 40.704 150.478 40.7787 150.627 40.928C150.776 41.056 150.872 41.2267 150.915 41.44C150.979 41.632 150.958 41.8453 150.851 42.08C150.766 42.3147 150.584 42.5173 150.307 42.688C149.603 43.2 148.771 43.5947 147.811 43.872C146.851 44.1493 145.902 44.288 144.963 44.288ZM157.615 44.224C157.252 44.224 156.932 44.128 156.655 43.936C156.378 43.744 156.154 43.4347 155.983 43.008L151.215 30.048C151.087 29.6853 151.044 29.3653 151.087 29.088C151.151 28.8107 151.29 28.5973 151.503 28.448C151.716 28.2987 151.983 28.224 152.303 28.224C152.623 28.224 152.879 28.2987 153.071 28.448C153.284 28.5973 153.455 28.8747 153.583 29.28L158.063 42.08H157.295L161.903 29.28C162.052 28.896 162.234 28.6293 162.447 28.48C162.682 28.3093 162.98 28.224 163.343 28.224C163.684 28.224 163.972 28.3093 164.207 28.48C164.442 28.6507 164.623 28.9173 164.751 29.28L169.263 42.08H168.527L173.071 29.216C173.22 28.832 173.402 28.576 173.615 28.448C173.828 28.2987 174.084 28.224 174.383 28.224C174.724 28.224 174.98 28.3093 175.151 28.48C175.343 28.6507 175.45 28.8747 175.471 29.152C175.492 29.4293 175.439 29.728 175.311 30.048L170.543 43.008C170.394 43.4133 170.17 43.7227 169.871 43.936C169.594 44.128 169.274 44.224 168.911 44.224C168.548 44.224 168.228 44.128 167.951 43.936C167.674 43.7227 167.46 43.4133 167.311 43.008L162.575 30.016H163.951L159.247 43.008C159.098 43.4133 158.884 43.7227 158.607 43.936C158.33 44.128 157.999 44.224 157.615 44.224Z" fill="#1C4C6B"/>
<defs>
<filter id="filter0_d_5_1188" x="0" y="4" width="64" height="62" filterUnits="userSpaceOnUse" color-interpolation-filters="sRGB">
<feFlood flood-opacity="0" result="BackgroundImageFix"/>
<feColorMatrix in="SourceAlpha" type="matrix" values="0 0 0 0 0 0 0 0 0 0 0 0 0 0 0 0 0 0 127 0" result="hardAlpha"/>
<feOffset dx="2" dy="2"/>
<feGaussianBlur stdDeviation="5"/>
<feComposite in2="hardAlpha" operator="out"/>
<feColorMatrix type="matrix" values="0 0 0 0 0 0 0 0 0 0 0 0 0 0 0 0 0 0 0.15 0"/>
<feBlend mode="normal" in2="BackgroundImageFix" result="effect1_dropShadow_5_1188"/>
<feBlend mode="normal" in="SourceGraphic" in2="effect1_dropShadow_5_1188" result="shape"/>
</filter>
<clipPath id="clip0_5_1188">
<rect width="44" height="42" fill="white" transform="translate(8 12)"/>
</clipPath>
</defs>
</svg>
