<svg width="26" height="27" viewBox="0 0 26 27" fill="none" xmlns="http://www.w3.org/2000/svg">
<path fill-rule="evenodd" clip-rule="evenodd" d="M4.6573 24.6916C4.53088 25.4122 5.24192 25.9763 5.86989 25.6535L13.0024 21.9876L20.1349 25.6535C20.7628 25.9763 21.4739 25.4122 21.3475 24.6916L19.9992 17.0061L25.7229 11.5516C26.2579 11.0418 25.981 10.1098 25.2644 10.008L17.3043 8.87721L13.7551 1.84658C13.4354 1.21325 12.5693 1.21325 12.2496 1.84658L8.70043 8.87721L0.74041 10.008C0.0238023 10.1098 -0.253098 11.0418 0.281821 11.5516L6.00561 17.0061L4.6573 24.6916ZM12.6273 20.1933L6.63794 23.2717L7.7661 16.8411C7.81928 16.538 7.71929 16.2276 7.50164 16.0201L2.77802 11.5187L9.36302 10.5833C9.63524 10.5446 9.87292 10.3707 10.0013 10.1164L13.0024 4.17158L16.0034 10.1164C16.1318 10.3707 16.3695 10.5446 16.6417 10.5833L23.2267 11.5187L18.5031 16.0201C18.2855 16.2276 18.1855 16.538 18.2387 16.8411L19.3668 23.2717L13.3775 20.1933C13.1409 20.0717 12.8639 20.0717 12.6273 20.1933Z" fill="#8FB339"/>
</svg>
