<svg width="32" height="32" viewBox="0 0 32 32" fill="none" xmlns="http://www.w3.org/2000/svg">
<path d="M29.5674 0.704529H9.80742C9.31611 0.704529 8.84492 0.899702 8.49751 1.24711C8.1501 1.59452 7.95492 2.06572 7.95492 2.55703V8.11453H2.39742C1.90611 8.11453 1.43492 8.3097 1.08751 8.65711C0.740095 9.00452 0.544922 9.47572 0.544922 9.96703V29.727C0.544922 30.2183 0.740095 30.6895 1.08751 31.0369C1.43492 31.3844 1.90611 31.5795 2.39742 31.5795H22.1574C22.6487 31.5795 23.1199 31.3844 23.4673 31.0369C23.8147 30.6895 24.0099 30.2183 24.0099 29.727V24.1695H29.5674C30.0587 24.1695 30.5299 23.9744 30.8773 23.6269C31.2247 23.2795 31.4199 22.8083 31.4199 22.317V2.55703C31.4199 2.06572 31.2247 1.59452 30.8773 1.24711C30.5299 0.899702 30.0587 0.704529 29.5674 0.704529ZM20.3049 27.8745H4.24992V11.8195H20.3049V27.8745ZM27.7149 20.4645H24.0099V9.96703C24.0099 9.47572 23.8147 9.00452 23.4673 8.65711C23.1199 8.3097 22.6487 8.11453 22.1574 8.11453H11.6599V4.40953H27.7149V20.4645Z" fill="black"/>
</svg>
