<svg width="60" height="60" viewBox="0 0 60 60" fill="none" xmlns="http://www.w3.org/2000/svg">
<path d="M33.0409 25.207V30.0404H37.3742C37.7075 30.0404 37.8742 30.3737 37.8742 30.707L37.2075 33.8737C37.2075 34.0404 36.8742 34.207 36.7075 34.207H33.0409V46.3737H28.0409V34.3737H25.2075C24.8742 34.3737 24.7075 34.207 24.7075 33.8737V30.707C24.7075 30.3737 24.8742 30.207 25.2075 30.207H28.0409V24.707C28.0409 21.8737 30.2075 19.707 33.0409 19.707H37.5409C37.8742 19.707 38.0409 19.8737 38.0409 20.207V24.207C38.0409 24.5404 37.8742 24.707 37.5409 24.707H33.5409C33.2075 24.707 33.0409 24.8737 33.0409 25.207V25.207Z" stroke="white" stroke-width="2.95385" stroke-miterlimit="10" stroke-linecap="round"/>
<path d="M34.7077 46.3739H24.7077C16.3743 46.3739 13.041 43.0405 13.041 34.7072V24.7072C13.041 16.3739 16.3743 13.0405 24.7077 13.0405H34.7077C43.041 13.0405 46.3743 16.3739 46.3743 24.7072V34.7072C46.3743 43.0405 43.041 46.3739 34.7077 46.3739Z" stroke="white" stroke-width="2.95385" stroke-linecap="round" stroke-linejoin="round"/>
</svg>
