<svg width="60" height="60" viewBox="0 0 60 60" fill="none" xmlns="http://www.w3.org/2000/svg">
<path d="M24.9694 46.3739H34.9694C43.3027 46.3739 46.6361 43.0405 46.6361 34.7072V24.7072C46.6361 16.3739 43.3027 13.0405 34.9694 13.0405H24.9694C16.6361 13.0405 13.3027 16.3739 13.3027 24.7072V34.7072C13.3027 43.0405 16.6361 46.3739 24.9694 46.3739Z" stroke="white" stroke-width="2.95385" stroke-linecap="round" stroke-linejoin="round"/>
<path d="M29.9691 35.5404C30.7351 35.5404 31.4937 35.3896 32.2014 35.0964C32.9091 34.8033 33.5522 34.3736 34.0939 33.8319C34.6355 33.2902 35.0652 32.6472 35.3584 31.9394C35.6515 31.2317 35.8024 30.4732 35.8024 29.7071C35.8024 28.9411 35.6515 28.1825 35.3584 27.4748C35.0652 26.7671 34.6355 26.124 34.0939 25.5823C33.5522 25.0406 32.9091 24.611 32.2014 24.3178C31.4937 24.0247 30.7351 23.8738 29.9691 23.8738C28.422 23.8738 26.9382 24.4884 25.8443 25.5823C24.7503 26.6763 24.1357 28.16 24.1357 29.7071C24.1357 31.2542 24.7503 32.7379 25.8443 33.8319C26.9382 34.9259 28.422 35.5404 29.9691 35.5404Z" stroke="white" stroke-width="2.95385" stroke-linecap="round" stroke-linejoin="round"/>
<path d="M39.3623 21.3738H39.3823" stroke="white" stroke-width="3.93846" stroke-linecap="round" stroke-linejoin="round"/>
</svg>
