<svg width="148" height="180" viewBox="0 0 148 180" fill="none" xmlns="http://www.w3.org/2000/svg">
<g filter="url(#filter0_d_5_1018)">
<mask id="mask0_5_1018" style="mask-type:luminance" maskUnits="userSpaceOnUse" x="14" y="8" width="120" height="110">
<path d="M86.6736 50.8606C79.7205 41.4634 72.2333 34.0114 63.9313 25.1658L14 49.8415V55.3584L63.3373 32.4939L86.6387 54.479L86.6736 50.8598M86.6736 63.7873C79.7205 55.3949 72.2333 48.7383 63.9313 40.8379L14 62.8778V67.8081L63.3373 47.3866L86.6351 67.0208L86.6736 63.7873ZM86.6736 76.7442C79.7205 69.4153 72.2333 63.6016 63.9313 56.7045L14 75.9498V80.2523L63.3373 62.4206L86.6387 79.5642L86.6736 76.7442ZM86.6736 89.0654C79.7205 81.4746 72.2333 75.4537 63.9313 68.3081L14 88.2432V92.6989C18.5537 90.9951 34.9995 84.8382 63.3373 74.2283L86.6351 91.9902L86.6736 89.0654ZM86.6736 102.082C79.7205 95.6776 72.2333 90.5988 63.9313 84.5716L14 101.387V105.146L63.3373 89.5654L86.6351 104.548L86.6736 102.082ZM86.6736 115.374C79.7205 110.737 72.2333 107.06 63.9313 102.695L14 114.874V117.596L63.3373 106.314L86.6351 117.159L86.6736 115.374ZM90.0325 72.5155L119.848 56.8005L133.928 71.9083C133.928 71.9083 133.953 69.1034 134 63.4953C133.875 63.5429 132.822 62.7354 130.84 61.0729V64.6445L120.206 51.7757L90.0343 68.728L90.0325 72.5155ZM133.953 77.6697C129.749 71.9909 125.229 67.4875 120.21 62.142L90.0343 77.0569V80.3904L119.85 66.5732L133.93 79.8594L133.953 77.6697ZM133.953 85.4819C129.749 80.4095 125.229 76.3871 120.21 71.6131L90.0343 84.9351V87.913L119.85 75.572L133.93 87.4391L133.953 85.4819ZM133.953 93.3116C129.749 88.8829 125.229 85.37 120.21 81.2016L90.0343 92.8346V95.4347L119.85 84.6589L133.93 95.0204L133.953 93.3116ZM133.953 100.758C129.749 96.1697 125.229 92.5314 120.21 88.213L90.0343 100.263V102.956L119.85 91.7941L133.93 102.528L133.953 100.758ZM133.953 108.623C129.749 104.753 125.229 101.684 120.21 98.0412L90.0343 108.207V110.478L119.848 101.064L133.928 110.118C133.928 110.118 133.936 109.619 133.95 108.627L133.953 108.623ZM133.953 116.656C129.749 113.854 125.229 111.631 120.21 108.994L90.0343 116.355V118L119.85 111.182L133.93 117.738L133.953 116.656ZM14 42.3308L63.3373 16.3321L86.6387 41.3332L86.7568 27.4096C86.5498 27.4874 84.8064 26.1511 81.5265 23.4007V29.3073L63.9313 8L14 36.0607V42.3308Z" fill="white"/>
</mask>
<g mask="url(#mask0_5_1018)">
<path d="M166.258 8H-18.2588V173.559H166.258V8Z" fill="#D0BA91"/>
</g>
</g>
<path d="M15.8186 162.224C15.4133 162.224 15.1039 162.117 14.8906 161.904C14.6773 161.669 14.5706 161.339 14.5706 160.912V140.56C14.5706 140.133 14.6773 139.803 14.8906 139.568C15.1039 139.333 15.3813 139.216 15.7226 139.216C16.0639 139.216 16.3093 139.28 16.4586 139.408C16.6293 139.515 16.8213 139.717 17.0346 140.016L30.9866 158.608H30.2186V140.496C30.2186 140.091 30.3253 139.781 30.5386 139.568C30.7519 139.333 31.0613 139.216 31.4666 139.216C31.8506 139.216 32.1386 139.333 32.3306 139.568C32.5439 139.781 32.6506 140.091 32.6506 140.496V160.944C32.6506 161.349 32.5546 161.669 32.3626 161.904C32.1919 162.117 31.9359 162.224 31.5946 162.224C31.2746 162.224 31.0186 162.16 30.8266 162.032C30.6346 161.904 30.4319 161.701 30.2186 161.424L16.2986 142.832H17.0346V160.912C17.0346 161.339 16.9279 161.669 16.7146 161.904C16.5013 162.117 16.2026 162.224 15.8186 162.224ZM36.6261 162.16C36.1994 162.16 35.8794 162.043 35.6661 161.808C35.4528 161.552 35.3461 161.2 35.3461 160.752V147.664C35.3461 147.216 35.4528 146.875 35.6661 146.64C35.8794 146.405 36.1994 146.288 36.6261 146.288C37.0314 146.288 37.3514 146.405 37.5861 146.64C37.8208 146.875 37.9381 147.216 37.9381 147.664V160.752C37.9381 161.2 37.8208 161.552 37.5861 161.808C37.3728 162.043 37.0528 162.16 36.6261 162.16ZM36.6261 142.704C36.0928 142.704 35.6768 142.565 35.3781 142.288C35.0794 141.989 34.9301 141.595 34.9301 141.104C34.9301 140.592 35.0794 140.208 35.3781 139.952C35.6768 139.675 36.0928 139.536 36.6261 139.536C37.1808 139.536 37.5968 139.675 37.8741 139.952C38.1728 140.208 38.3221 140.592 38.3221 141.104C38.3221 141.595 38.1728 141.989 37.8741 142.288C37.5968 142.565 37.1808 142.704 36.6261 142.704ZM46.8156 162.288C45.2583 162.288 43.9143 161.947 42.7836 161.264C41.6529 160.581 40.7783 159.632 40.1596 158.416C39.5623 157.179 39.2636 155.749 39.2636 154.128C39.2636 152.891 39.4343 151.781 39.7756 150.8C40.1169 149.819 40.6183 148.987 41.2796 148.304C41.9409 147.6 42.7303 147.067 43.6476 146.704C44.5863 146.341 45.6423 146.16 46.8156 146.16C47.5836 146.16 48.3836 146.277 49.2156 146.512C50.0476 146.747 50.8049 147.152 51.4876 147.728C51.7009 147.877 51.8396 148.059 51.9036 148.272C51.9676 148.485 51.9676 148.699 51.9036 148.912C51.8396 149.104 51.7329 149.275 51.5836 149.424C51.4343 149.552 51.2423 149.627 51.0076 149.648C50.7943 149.669 50.5703 149.595 50.3356 149.424C49.7809 148.997 49.2156 148.699 48.6396 148.528C48.0636 148.357 47.5089 148.272 46.9756 148.272C46.1436 148.272 45.4183 148.411 44.7996 148.688C44.1809 148.944 43.6583 149.317 43.2316 149.808C42.8049 150.299 42.4743 150.907 42.2396 151.632C42.0263 152.357 41.9196 153.2 41.9196 154.16C41.9196 156.016 42.3569 157.488 43.2316 158.576C44.1063 159.643 45.3543 160.176 46.9756 160.176C47.5089 160.176 48.0529 160.091 48.6076 159.92C49.1836 159.749 49.7596 159.451 50.3356 159.024C50.5703 158.853 50.7943 158.779 51.0076 158.8C51.2209 158.821 51.4023 158.907 51.5516 159.056C51.7009 159.184 51.7969 159.355 51.8396 159.568C51.9036 159.781 51.9036 159.995 51.8396 160.208C51.7756 160.4 51.6369 160.571 51.4236 160.72C50.7409 161.275 49.9943 161.68 49.1836 161.936C48.3729 162.171 47.5836 162.288 46.8156 162.288ZM59.1716 162.288C57.5289 162.288 56.1103 161.968 54.9156 161.328C53.7423 160.667 52.8249 159.739 52.1636 158.544C51.5236 157.349 51.2036 155.92 51.2036 154.256C51.2036 152.635 51.5236 151.227 52.1636 150.032C52.8036 148.816 53.6783 147.867 54.7876 147.184C55.9183 146.501 57.2196 146.16 58.6916 146.16C59.7369 146.16 60.6756 146.341 61.5076 146.704C62.3396 147.045 63.0436 147.547 63.6196 148.208C64.2169 148.869 64.6649 149.669 64.9636 150.608C65.2836 151.547 65.4436 152.603 65.4436 153.776C65.4436 154.117 65.3476 154.373 65.1556 154.544C64.9636 154.693 64.6863 154.768 64.3236 154.768H53.1876V153.072H63.7156L63.2036 153.488C63.2036 152.336 63.0329 151.365 62.6916 150.576C62.3503 149.765 61.8489 149.147 61.1876 148.72C60.5476 148.293 59.7369 148.08 58.7556 148.08C57.6676 148.08 56.7396 148.336 55.9716 148.848C55.2249 149.339 54.6596 150.032 54.2756 150.928C53.8916 151.803 53.6996 152.827 53.6996 154V154.192C53.6996 156.155 54.1689 157.648 55.1076 158.672C56.0676 159.696 57.4223 160.208 59.1716 160.208C59.8969 160.208 60.6116 160.112 61.3156 159.92C62.0409 159.728 62.7449 159.408 63.4276 158.96C63.7263 158.768 63.9929 158.683 64.2276 158.704C64.4836 158.704 64.6863 158.779 64.8356 158.928C64.9849 159.056 65.0809 159.227 65.1236 159.44C65.1876 159.632 65.1663 159.845 65.0596 160.08C64.9743 160.315 64.7929 160.517 64.5156 160.688C63.8116 161.2 62.9796 161.595 62.0196 161.872C61.0596 162.149 60.1103 162.288 59.1716 162.288ZM80.9329 162.224C80.5275 162.224 80.1969 162.128 79.9409 161.936C79.6849 161.744 79.4822 161.456 79.3329 161.072L70.5329 140.944C70.3835 140.581 70.3409 140.283 70.4049 140.048C70.4689 139.792 70.6075 139.589 70.8209 139.44C71.0555 139.291 71.3222 139.216 71.6209 139.216C72.0262 139.216 72.3249 139.312 72.5169 139.504C72.7302 139.675 72.9009 139.931 73.0289 140.272L81.4769 159.888H80.4529L88.8689 140.24C89.0182 139.92 89.1995 139.675 89.4129 139.504C89.6262 139.312 89.9249 139.216 90.3089 139.216C90.6075 139.216 90.8529 139.291 91.0449 139.44C91.2582 139.589 91.3862 139.792 91.4289 140.048C91.4929 140.304 91.4502 140.603 91.3009 140.944L82.5009 161.072C82.3515 161.456 82.1489 161.744 81.8929 161.936C81.6582 162.128 81.3382 162.224 80.9329 162.224ZM93.8574 162.16C93.4307 162.16 93.1107 162.043 92.8974 161.808C92.684 161.552 92.5774 161.2 92.5774 160.752V147.664C92.5774 147.216 92.684 146.875 92.8974 146.64C93.1107 146.405 93.4307 146.288 93.8574 146.288C94.2627 146.288 94.5827 146.405 94.8174 146.64C95.052 146.875 95.1694 147.216 95.1694 147.664V160.752C95.1694 161.2 95.052 161.552 94.8174 161.808C94.604 162.043 94.284 162.16 93.8574 162.16ZM93.8574 142.704C93.324 142.704 92.908 142.565 92.6094 142.288C92.3107 141.989 92.1614 141.595 92.1614 141.104C92.1614 140.592 92.3107 140.208 92.6094 139.952C92.908 139.675 93.324 139.536 93.8574 139.536C94.412 139.536 94.828 139.675 95.1054 139.952C95.404 140.208 95.5534 140.592 95.5534 141.104C95.5534 141.595 95.404 141.989 95.1054 142.288C94.828 142.565 94.412 142.704 93.8574 142.704ZM104.463 162.288C102.82 162.288 101.402 161.968 100.207 161.328C99.0335 160.667 98.1162 159.739 97.4549 158.544C96.8149 157.349 96.4949 155.92 96.4949 154.256C96.4949 152.635 96.8149 151.227 97.4549 150.032C98.0949 148.816 98.9695 147.867 100.079 147.184C101.21 146.501 102.511 146.16 103.983 146.16C105.028 146.16 105.967 146.341 106.799 146.704C107.631 147.045 108.335 147.547 108.911 148.208C109.508 148.869 109.956 149.669 110.255 150.608C110.575 151.547 110.735 152.603 110.735 153.776C110.735 154.117 110.639 154.373 110.447 154.544C110.255 154.693 109.978 154.768 109.615 154.768H98.4789V153.072H109.007L108.495 153.488C108.495 152.336 108.324 151.365 107.983 150.576C107.642 149.765 107.14 149.147 106.479 148.72C105.839 148.293 105.028 148.08 104.047 148.08C102.959 148.08 102.031 148.336 101.263 148.848C100.516 149.339 99.9509 150.032 99.5669 150.928C99.1829 151.803 98.9909 152.827 98.9909 154V154.192C98.9909 156.155 99.4602 157.648 100.399 158.672C101.359 159.696 102.714 160.208 104.463 160.208C105.188 160.208 105.903 160.112 106.607 159.92C107.332 159.728 108.036 159.408 108.719 158.96C109.018 158.768 109.284 158.683 109.519 158.704C109.775 158.704 109.978 158.779 110.127 158.928C110.276 159.056 110.372 159.227 110.415 159.44C110.479 159.632 110.458 159.845 110.351 160.08C110.266 160.315 110.084 160.517 109.807 160.688C109.103 161.2 108.271 161.595 107.311 161.872C106.351 162.149 105.402 162.288 104.463 162.288ZM117.115 162.224C116.752 162.224 116.432 162.128 116.155 161.936C115.877 161.744 115.653 161.435 115.483 161.008L110.715 148.048C110.587 147.685 110.544 147.365 110.587 147.088C110.651 146.811 110.789 146.597 111.003 146.448C111.216 146.299 111.483 146.224 111.803 146.224C112.123 146.224 112.379 146.299 112.571 146.448C112.784 146.597 112.955 146.875 113.083 147.28L117.563 160.08H116.795L121.403 147.28C121.552 146.896 121.733 146.629 121.947 146.48C122.181 146.309 122.48 146.224 122.843 146.224C123.184 146.224 123.472 146.309 123.707 146.48C123.941 146.651 124.123 146.917 124.251 147.28L128.763 160.08H128.027L132.571 147.216C132.72 146.832 132.901 146.576 133.115 146.448C133.328 146.299 133.584 146.224 133.883 146.224C134.224 146.224 134.48 146.309 134.651 146.48C134.843 146.651 134.949 146.875 134.971 147.152C134.992 147.429 134.939 147.728 134.811 148.048L130.043 161.008C129.893 161.413 129.669 161.723 129.371 161.936C129.093 162.128 128.773 162.224 128.411 162.224C128.048 162.224 127.728 162.128 127.451 161.936C127.173 161.723 126.96 161.413 126.811 161.008L122.075 148.016H123.451L118.747 161.008C118.597 161.413 118.384 161.723 118.107 161.936C117.829 162.128 117.499 162.224 117.115 162.224Z" fill="#5597C1"/>
<defs>
<filter id="filter0_d_5_1018" x="6" y="0" width="140" height="130" filterUnits="userSpaceOnUse" color-interpolation-filters="sRGB">
<feFlood flood-opacity="0" result="BackgroundImageFix"/>
<feColorMatrix in="SourceAlpha" type="matrix" values="0 0 0 0 0 0 0 0 0 0 0 0 0 0 0 0 0 0 127 0" result="hardAlpha"/>
<feOffset dx="2" dy="2"/>
<feGaussianBlur stdDeviation="5"/>
<feComposite in2="hardAlpha" operator="out"/>
<feColorMatrix type="matrix" values="0 0 0 0 0 0 0 0 0 0 0 0 0 0 0 0 0 0 0.15 0"/>
<feBlend mode="normal" in2="BackgroundImageFix" result="effect1_dropShadow_5_1018"/>
<feBlend mode="normal" in="SourceGraphic" in2="effect1_dropShadow_5_1018" result="shape"/>
</filter>
</defs>
</svg>
