<svg width="60" height="60" viewBox="0 0 60 60" fill="none" xmlns="http://www.w3.org/2000/svg">
<path d="M30 10C18.955 10 10 18.955 10 30C10 41.045 18.955 50 30 50C41.045 50 50 41.045 50 30C50 18.955 41.045 10 30 10ZM39.8233 23.7017L36.54 39.1683C36.2983 40.265 35.645 40.5317 34.7333 40.015L29.7333 36.3317L27.3233 38.655C27.2052 38.8079 27.0537 38.9316 26.8804 39.0169C26.707 39.1021 26.5165 39.1465 26.3233 39.1467H26.315L26.67 34.0567L35.9367 25.6867C36.3367 25.3317 35.8467 25.13 35.315 25.485L23.8667 32.695L18.9333 31.155C17.8667 30.8167 17.8367 30.0883 19.1583 29.565L38.435 22.135C39.3317 21.8083 39.9599 22.695 39.7816 23.8984L39.8233 23.7017Z" stroke="white" stroke-width="1.96923"/>
</svg>
