<svg width="108" height="144" viewBox="0 0 108 144" fill="none" xmlns="http://www.w3.org/2000/svg">
<path d="M43.7507 116.661C48.1082 116.116 46.2071 107.343 46.1478 104.676C45.7286 85.8125 44.059 67.0238 42.6852 48.2147C42.4152 44.5192 33.558 -5.95691 51.3416 17.1877C64.5333 34.3561 74.5853 53.9131 86.1006 72.1841C89.2975 77.2565 92.5915 82.2684 95.9557 87.2315C98.567 91.0839 107.71 96.8685 103.547 98.9498C101.043 100.201 75.3899 85.0208 74.6474 84.7014C54.116 75.867 32.927 72.0323 11.522 66.3248C-31.6029 54.8259 95.9401 -2.05141 95.5562 2.93925C93.5329 29.239 73.4139 60.7531 63.7271 84.9677C56.3845 103.322 51.0928 122.276 43.7507 140.63" stroke="black" stroke-width="5" stroke-linecap="round"/>
</svg>
