<svg width="131" height="135" viewBox="0 0 131 135" fill="none" xmlns="http://www.w3.org/2000/svg">
<g filter="url(#filter0_d_96_2694)">
<path d="M122.75 78.5785L117.93 85.0428L111.656 90.4136L110.822 95.1438L105.617 97.8211L103.229 104.882L96.8152 109.788L96.5676 113.969L92.7214 118.852L7.86127 56.3177L13.1532 48.1097L20.4141 44.3006L28.4702 30.7896L32.7668 26.9054L37.8902 16.0438L122.75 78.5785Z" fill="#FFE0E0"/>
<path d="M111.186 89.8711L110.991 90.0385L110.946 90.2911L110.175 94.6711L105.287 97.1851L105.028 97.3185L104.935 97.5938L102.617 104.448L96.3769 109.221L96.1157 109.42L96.0964 109.747L95.8621 113.704L92.5876 117.862L8.83056 56.14L13.6565 48.6548L20.7492 44.934L20.9294 44.8394L21.0333 44.6652L29.0341 31.2468L33.2506 27.435L33.3573 27.3386L33.4185 27.2087L38.1677 17.1403L121.743 78.7282L117.4 84.5525L111.186 89.8711Z" stroke="black" stroke-width="1.43617"/>
</g>
<path d="M86.4704 106.216L49.6129 79.5885M37.105 71.3724L21.0132 60.2877M90.6272 66.8256L57.7775 71.5489M54.7873 63.0531L49.411 33.8373M102.087 96.8899L98.6579 94.7198M118.69 80.3837L111.832 76.0433M44.0763 28.0599L39.0101 25.1538" stroke="black" stroke-width="1.43617" stroke-linecap="round"/>
<defs>
<filter id="filter0_d_96_2694" x="7.86133" y="16.0439" width="114.889" height="104.963" filterUnits="userSpaceOnUse" color-interpolation-filters="sRGB">
<feFlood flood-opacity="0" result="BackgroundImageFix"/>
<feColorMatrix in="SourceAlpha" type="matrix" values="0 0 0 0 0 0 0 0 0 0 0 0 0 0 0 0 0 0 127 0" result="hardAlpha"/>
<feOffset dy="2.15426"/>
<feComposite in2="hardAlpha" operator="out"/>
<feColorMatrix type="matrix" values="0 0 0 0 0 0 0 0 0 0 0 0 0 0 0 0 0 0 1 0"/>
<feBlend mode="normal" in2="BackgroundImageFix" result="effect1_dropShadow_96_2694"/>
<feBlend mode="normal" in="SourceGraphic" in2="effect1_dropShadow_96_2694" result="shape"/>
</filter>
</defs>
</svg>
