<svg width="109" height="116" viewBox="0 0 109 116" fill="none" xmlns="http://www.w3.org/2000/svg">
<g filter="url(#filter0_d_96_2675)">
<path d="M0.532981 33.7499L6.6522 28.4988L13.9512 24.6333L15.8008 20.2008L21.4662 18.729L25.343 12.3625L32.6763 8.98141L33.8339 4.95637L38.6567 1.03437L107.753 80.6434L100.791 87.4924L92.8716 89.618L82.0508 101.035L77.0076 103.884L69.6288 113.359L0.532981 33.7499Z" fill="#EED8FF"/>
<path d="M14.2901 25.2655L14.5176 25.145L14.6164 24.9083L16.329 20.8038L21.6488 19.4219L21.9311 19.3485L22.0823 19.1003L25.8454 12.9205L32.9796 9.63111L33.2781 9.49348L33.3686 9.17885L34.4643 5.36912L38.5701 2.03016L106.768 80.6044L100.419 86.8503L92.6834 88.9266L92.4869 88.9793L92.3474 89.1266L81.6008 100.466L76.6516 103.261L76.5263 103.332L76.4381 103.445L69.5982 112.228L1.54862 33.8246L7.06203 29.0933L14.2901 25.2655Z" stroke="black" stroke-width="1.43617"/>
</g>
<path d="M41.9851 14.7325L72.1124 48.7893M82.5161 59.5464L95.7881 73.8876M29.2983 52.2553L62.3847 54.8446M63.4406 63.7892L62.2847 93.473M24.7045 20.4106L27.5747 23.2794M4.88837 32.8779L10.6288 38.6155M66.2239 100.279L70.5302 104.224" stroke="black" stroke-width="1.43617" stroke-linecap="round"/>
<defs>
<filter id="filter0_d_96_2675" x="0.533203" y="1.03418" width="107.219" height="114.479" filterUnits="userSpaceOnUse" color-interpolation-filters="sRGB">
<feFlood flood-opacity="0" result="BackgroundImageFix"/>
<feColorMatrix in="SourceAlpha" type="matrix" values="0 0 0 0 0 0 0 0 0 0 0 0 0 0 0 0 0 0 127 0" result="hardAlpha"/>
<feOffset dy="2.15426"/>
<feComposite in2="hardAlpha" operator="out"/>
<feColorMatrix type="matrix" values="0 0 0 0 0 0 0 0 0 0 0 0 0 0 0 0 0 0 1 0"/>
<feBlend mode="normal" in2="BackgroundImageFix" result="effect1_dropShadow_96_2675"/>
<feBlend mode="normal" in="SourceGraphic" in2="effect1_dropShadow_96_2675" result="shape"/>
</filter>
</defs>
</svg>
