<svg width="190" height="185" viewBox="0 0 190 185" fill="none" xmlns="http://www.w3.org/2000/svg">
<g filter="url(#filter0_d_96_2697)">
<path d="M36.5959 132.218L34.5803 122.546L34.7906 112.551L31.0793 107.799L32.909 101.022L28.3182 92.9415L29.0773 83.2215L25.3908 79.4437L24.0384 71.9601L152.714 52L155.961 63.566L153.478 73.082L159.366 91.5551L159.414 98.5759L165.271 112.258L36.5959 132.218Z" fill="#FCBA91"/>
<path d="M35.515 112.599L35.5204 112.343L35.3576 112.135L31.872 107.672L33.61 101.235L33.6849 100.958L33.5378 100.699L29.0576 92.8128L29.7997 83.3098L29.8251 82.9846L29.5887 82.7423L26.0639 79.1302L24.8758 72.5559L152.198 52.8057L155.211 63.5395L152.775 72.8746L152.725 73.0684L152.787 73.2644L158.642 91.6332L158.69 98.5463L158.691 98.6898L158.748 98.8243L164.256 111.69L37.159 131.405L35.3064 122.515L35.515 112.599Z" stroke="black" stroke-width="1.43617"/>
</g>
<path d="M50.5689 108.234L105.961 99.1105M123.995 95.315L145.253 91.7973M36.7064 98.7682L41.5739 97.6575M38.2864 127.174L48.0214 124.952M148.949 107.356L155.86 105.459" stroke="black" stroke-width="1.43617" stroke-linecap="round"/>
<defs>
<filter id="filter0_d_96_2697" x="24.0391" y="52" width="141.232" height="82.3725" filterUnits="userSpaceOnUse" color-interpolation-filters="sRGB">
<feFlood flood-opacity="0" result="BackgroundImageFix"/>
<feColorMatrix in="SourceAlpha" type="matrix" values="0 0 0 0 0 0 0 0 0 0 0 0 0 0 0 0 0 0 127 0" result="hardAlpha"/>
<feOffset dy="2.15426"/>
<feComposite in2="hardAlpha" operator="out"/>
<feColorMatrix type="matrix" values="0 0 0 0 0 0 0 0 0 0 0 0 0 0 0 0 0 0 1 0"/>
<feBlend mode="normal" in2="BackgroundImageFix" result="effect1_dropShadow_96_2697"/>
<feBlend mode="normal" in="SourceGraphic" in2="effect1_dropShadow_96_2697" result="shape"/>
</filter>
</defs>
</svg>
