<svg width="42" height="38" viewBox="0 0 42 38" fill="none" xmlns="http://www.w3.org/2000/svg">
<path fill-rule="evenodd" clip-rule="evenodd" d="M37.5752 0.889945C38.0782 0.669618 38.6288 0.593628 39.1696 0.669885C39.7104 0.746142 40.2216 0.971858 40.6502 1.32354C41.0787 1.67522 41.4088 2.14001 41.6062 2.66953C41.8036 3.19905 41.8609 3.77395 41.7724 4.33438L37.1559 33.4765C36.7081 36.2875 33.7445 37.8996 31.2673 36.4993C29.1952 35.3279 26.1175 33.5231 23.3493 31.6399C21.9652 30.6972 17.7253 27.6786 18.2464 25.5306C18.6942 23.6939 25.8183 16.7924 29.8893 12.6891C31.4871 11.0771 30.7584 10.1471 28.8715 11.63C24.1859 15.3116 16.6628 20.9104 14.1754 22.4865C11.9812 23.8761 10.8373 24.1134 9.46942 23.8761C6.97393 23.444 4.6596 22.7746 2.77068 21.959C0.218197 20.8575 0.342361 17.2054 2.76864 16.142L37.5752 0.889945Z" fill="black"/>
</svg>
