<svg width="69" height="26" viewBox="0 0 69 26" fill="none" xmlns="http://www.w3.org/2000/svg">
<path d="M4.24062 0.473783C2.8477 1.24275 1.31666 3.4124 0.833068 6.13787C0.220544 9.58995 2.76904 11.0502 2.97824 10.5721C3.22423 10.0096 2.52158 9.81945 2.37691 8.02812C2.18998 5.71455 3.0061 3.12949 4.03329 1.99519C4.22395 1.78433 4.21502 2.07778 4.21502 2.62024C4.21502 3.59041 4.17435 12.3 4.17435 14.1176C4.17435 16.5771 4.09728 17.3538 3.95875 18.1213C3.81862 18.8989 3.59303 19.4245 3.76382 19.6269C3.95475 19.8532 4.76994 19.3147 5.2418 18.4468C5.80766 17.4058 6.00579 16.1553 6.04139 14.7979C6.08432 13.1612 6.08245 10.564 6.08432 9.08264C6.08592 7.72412 6.10165 3.74593 6.06619 1.35433C6.05752 0.767416 4.82314 0.152034 4.24062 0.473783ZM53.6989 11.9842C53.654 13.2629 53.4392 14.2623 53.1727 14.9673C52.6567 16.3321 51.586 16.7558 51.1314 14.794C50.8836 13.7245 50.872 11.9385 51.05 10.4461C51.2314 8.9259 51.7377 7.77772 52.576 7.88122C53.4029 7.98367 53.79 9.38787 53.6989 11.9844V11.9842ZM39.7591 19.9174C39.7479 22.0419 39.4942 23.9045 38.9502 24.4458C38.1785 25.213 37.1413 24.6373 37.3561 23.0871C37.5461 21.7152 38.4449 20.3142 39.7614 18.6023C39.7614 18.6023 39.7641 18.9927 39.7591 19.9174ZM39.5485 11.9717C39.5013 13.1364 39.2722 14.3062 39.0222 14.9673C38.5062 16.3321 37.4278 16.7588 36.9809 14.794C36.6753 13.4515 36.7485 11.7143 36.8996 10.6195C37.0958 9.19914 37.5716 7.8814 38.4256 7.8814C39.2559 7.8814 39.6655 9.08211 39.5485 11.9717ZM31.4733 11.9541C31.4226 13.1874 31.2401 14.2183 30.9471 14.9673C30.417 16.3228 29.3682 16.7526 28.9058 14.794C28.5724 13.3817 28.6858 11.4561 28.8245 10.4159C29.0304 8.87212 29.5458 7.77772 30.3505 7.8814C31.177 7.98788 31.5787 9.38787 31.4733 11.9541ZM68.4798 13.3947C68.2778 13.3947 68.1855 13.6692 68.1091 14.131C67.8447 15.7378 67.5664 16.1003 67.2079 16.1003C66.8072 16.1003 66.4473 15.305 66.3546 13.7126C66.2819 12.4604 66.2937 10.1553 66.3866 7.86224C66.4057 7.39113 66.307 6.92493 65.3482 6.46595C64.9357 6.26843 64.336 5.97761 64.0373 6.92757C63.1937 9.61157 62.8636 11.7424 62.7858 12.6076C62.7818 12.6525 62.7401 12.6618 62.7329 12.557C62.6833 11.8638 62.5728 10.6039 62.5589 7.95713C62.5562 7.44068 62.4733 7.0012 62.0408 6.64132C61.7601 6.40761 60.908 5.99466 60.6012 6.48615C60.3353 6.88786 60.0274 7.96926 59.7075 9.25134C59.4475 10.2934 59.2664 10.998 59.2664 10.998C59.2664 10.998 59.2699 8.1868 59.273 7.12034C59.2743 6.71811 59.065 6.58403 59.0018 6.55978C58.7178 6.45118 58.1578 6.26966 57.9202 6.26966C57.6269 6.26966 57.5551 6.48545 57.5551 6.80035C57.5551 6.84164 57.5089 10.5016 57.5089 13.0608C57.5089 13.1721 57.5089 13.2933 57.5093 13.4223C57.3471 14.5986 56.8211 16.1952 56.2491 16.1952C55.6763 16.1952 55.4062 15.5278 55.4062 12.4767C55.4062 10.6968 55.4468 9.92277 55.4666 8.63542C55.4782 7.89387 55.5006 7.32453 55.4993 7.19537C55.495 6.79912 54.9753 6.59932 54.7333 6.52552C54.4902 6.45118 54.279 6.42219 54.1141 6.43467C53.8806 6.45224 53.7154 6.65379 53.7154 6.93144C53.7154 7.08045 53.7168 7.36336 53.7168 7.36336C53.4161 6.7406 52.9325 6.30727 52.6108 6.18163C51.7441 5.84248 50.8399 6.14297 50.1578 7.40097C49.6156 8.40031 49.2888 9.53249 49.1602 11.1588C49.0662 12.3479 49.0969 13.5536 49.2641 14.5733C49.0621 15.7239 48.6873 16.1952 48.2767 16.1952C47.6807 16.1952 47.2487 14.9135 47.2989 12.6962C47.3319 11.2379 47.5534 10.2145 47.7954 8.73383C47.8986 8.10263 47.8147 7.77227 47.6045 7.45562C47.4115 7.16515 47.0005 7.01666 46.4098 7.19906C45.989 7.32927 45.3873 7.46933 44.8368 7.57687C44.8368 7.57687 44.8701 7.40202 44.8973 7.09416C45.0405 5.47926 43.7089 5.61017 43.284 6.12592C43.0305 6.43396 42.8579 6.79718 42.7924 7.45017C42.6884 8.48659 43.3297 8.97545 43.3297 8.97545C43.1195 10.2449 42.6036 11.903 42.0711 13.102C41.7859 13.7442 41.5678 14.2203 41.286 14.7262C41.2768 12.6959 41.2869 10.6655 41.3162 8.6356C41.3278 7.89405 41.3503 7.33982 41.3491 7.21048C41.3459 6.92089 41.2175 6.81124 40.9504 6.67277C40.7142 6.55012 40.435 6.46542 40.1453 6.43554C39.7797 6.39829 39.5594 6.65362 39.5653 6.95586C39.5663 7.01297 39.5663 7.36336 39.5663 7.36336C39.2657 6.7406 38.7821 6.30727 38.4604 6.18163C37.5937 5.84248 36.6894 6.14297 36.0073 7.40097C35.4653 8.40031 35.1104 9.80293 35.0097 11.1465C34.9161 12.3985 34.9333 13.4625 35.0611 14.3591C34.9233 15.2567 34.5271 16.1954 34.0792 16.1954C33.5064 16.1954 33.1806 15.5278 33.1806 12.4767C33.1806 10.6968 33.2211 9.92277 33.2411 8.63542C33.2527 7.89405 33.275 7.32453 33.2738 7.19537C33.2695 6.79912 32.7496 6.59949 32.5076 6.52552C32.2546 6.4482 32.0361 6.42008 31.8682 6.43642C31.6469 6.45804 31.4911 6.71934 31.4911 6.91422V7.36336C31.1905 6.7406 30.7069 6.30727 30.3851 6.18163C29.5185 5.84248 28.6193 6.14789 27.9321 7.40097C27.4841 8.21791 27.1213 9.12358 26.9347 11.1286C26.8807 11.7079 26.8568 12.2508 26.86 12.7577C26.6813 14.1979 25.892 15.8578 25.2466 15.8578C24.8688 15.8578 24.509 14.892 24.509 12.8342C24.509 10.0929 24.6378 6.18971 24.6596 5.81366C24.6596 5.81366 25.4752 5.79539 25.6331 5.79293C26.04 5.78695 26.4084 5.79978 26.9504 5.76305C27.2221 5.74495 27.484 4.45919 27.2035 4.30016C27.0763 4.22811 26.1777 4.1652 25.8215 4.15518C25.522 4.1464 24.6882 4.06486 24.6882 4.06486C24.6882 4.06486 24.763 1.47418 24.7804 1.20057C24.7951 0.97231 24.5711 0.854927 24.4428 0.783759C24.1306 0.609793 23.8512 0.526324 23.5202 0.436354C23.0626 0.311942 22.8551 0.433718 22.8146 0.942437C22.7535 1.71474 22.7219 3.97683 22.7219 3.97683C22.3862 3.97683 21.2393 3.89037 20.9036 3.89037C20.5916 3.89037 20.2548 5.65885 20.6862 5.68064C21.1825 5.70594 22.0474 5.72808 22.6207 5.75058C22.6207 5.75058 22.5951 9.71806 22.5951 10.9432C22.5951 11.0732 22.5957 11.1989 22.5962 11.3207C22.2806 13.4882 21.1692 14.6592 21.1692 14.6592C21.4078 13.2251 20.9202 12.1481 20.042 11.2365C19.7184 10.9007 19.0796 10.2647 18.3649 9.56781C18.3649 9.56781 18.7788 9.0301 19.146 7.94835C19.406 7.18184 19.4173 6.30516 18.7788 6.11169C17.7239 5.79187 16.8542 6.813 16.5947 7.90319C16.3936 8.74771 16.5008 9.37417 16.8947 10.025C16.9234 10.0727 16.9547 10.1213 16.9867 10.1702C16.7487 10.775 16.4215 11.5895 16.1444 12.2211C15.3754 13.9748 14.7945 15.3616 14.3554 15.3616C14.0045 15.3616 14.0091 13.9533 14.0091 12.6349C14.0091 11.4983 14.0729 9.7894 14.1238 8.02039C14.1406 7.43524 13.9185 7.10189 13.5465 6.8C13.3203 6.61654 12.8378 6.25596 12.5584 6.25596C12.14 6.25596 10.933 6.33099 9.7928 10.6784C9.64907 11.2263 9.36667 12.2247 9.36667 12.2247L9.39107 6.99681C9.39107 6.87415 9.34147 6.75571 9.228 6.6747C9.03587 6.53711 8.52268 6.25596 8.06629 6.25596C7.84896 6.25596 7.74029 6.38915 7.74029 6.65485L7.70056 14.8341C7.70056 15.4556 7.71283 16.1806 7.75949 16.4976C7.80589 16.815 7.88123 17.0733 7.97429 17.2269C8.06749 17.3803 8.17509 17.4975 8.35255 17.5456C8.51775 17.5905 9.42227 17.7435 9.46933 17.288C9.5256 16.7419 9.52787 16.1515 10.0028 13.9489C10.7422 10.5199 11.7062 8.847 12.1596 8.2527C12.2389 8.14902 12.3293 8.1427 12.3249 8.31262C12.3057 9.06437 12.2376 10.9432 12.1918 12.5388C12.069 16.8097 12.6585 17.6014 13.501 17.6014C14.1455 17.6014 15.054 16.7574 16.0279 14.6209C16.5705 13.4303 17.1107 12.2377 17.6483 11.0432C17.9433 11.4032 18.2747 11.7907 18.6056 12.2047C19.3749 13.167 19.6274 14.0814 19.4598 14.9488C19.3318 15.6118 18.8491 16.2952 17.99 15.6311C17.7396 15.4373 17.6327 15.2874 17.3809 15.069C17.2457 14.9518 17.0392 14.9167 16.9154 15.0397C16.5938 15.3591 16.4098 15.7657 16.3047 16.269C16.2026 16.7588 16.5747 17.0176 16.9606 17.2441C17.2927 17.439 18.0067 17.6156 18.4619 17.6356C20.2358 17.7138 21.657 16.5068 22.6463 13.3931C22.8234 16.0822 23.577 17.6038 24.8864 17.6038C25.7619 17.6038 26.6396 16.1124 27.0235 14.6453C27.1336 15.2433 27.2968 15.7635 27.5075 16.2033C28.5164 18.3102 30.4737 17.8569 31.4569 16.0676C31.7609 15.5148 31.8071 15.3162 31.8071 15.3162C31.9506 17.0055 32.9828 17.5957 33.5738 17.5957C34.2358 17.5957 34.9191 17.1833 35.3981 15.7621C35.4543 15.9163 35.5156 16.0638 35.5825 16.2033C36.5914 18.3102 38.5489 17.8569 39.5321 16.0676C39.5785 15.9836 39.6187 15.9077 39.6538 15.8392L39.6826 16.9489L38.7774 18.0431C37.2601 19.8759 36.1076 21.2659 36.0228 22.8848C35.9148 24.949 37.1844 25.7162 38.1462 25.8168C39.1658 25.9234 40.0406 25.1805 40.5774 24.1407C41.0499 23.2254 41.3592 21.2555 41.3364 19.3101C41.3275 18.5309 41.3124 17.5404 41.3008 16.4785C41.8335 15.6633 42.4336 14.6329 42.9861 13.427C43.5883 12.1128 44.2336 10.3478 44.564 8.97422C44.564 8.97422 45.1246 8.98072 45.723 8.92906C45.9144 8.91254 45.9694 8.9642 45.934 9.14889C45.8913 9.37241 45.178 12.9981 45.829 15.4134C46.2745 17.067 47.2789 17.5987 47.8743 17.5987C48.5715 17.5987 49.2383 16.905 49.5956 15.8749C49.6388 15.9896 49.6838 16.1007 49.733 16.2035C50.7419 18.3104 52.6924 17.854 53.6825 16.0676C53.906 15.6645 54.0328 15.3162 54.0328 15.3162C54.2452 17.0647 55.2769 17.6047 55.8678 17.6047C56.4833 17.6047 57.0675 17.272 57.5414 15.794C57.5614 16.4449 57.5925 16.977 57.6417 17.1446C57.6717 17.2474 57.8466 17.3761 57.9738 17.4383C58.537 17.7135 59.1111 17.5834 59.3236 17.5268C59.4708 17.4875 59.5856 17.3318 59.6014 16.9301C59.6427 15.8749 59.6174 14.102 59.86 12.7843C60.2673 10.5731 60.6475 9.71542 60.8277 9.29087C60.9287 9.05277 61.0424 9.01358 61.0465 9.26539C61.0551 9.77499 61.0743 11.2709 61.2321 13.2812C61.3481 14.7594 61.5028 15.6333 61.6219 15.91C61.9616 16.7008 62.3809 16.7382 62.7225 16.7382C62.9398 16.7382 63.3942 16.6591 63.3536 16.1559C63.3337 15.9105 63.3684 14.3944 63.7701 12.216C64.0324 10.7933 64.4697 9.50807 64.6274 9.03801C64.6857 8.86474 64.7127 9.00128 64.7117 9.02799C64.6785 10.0076 64.6039 13.2121 64.9067 14.9648C65.3174 17.339 66.5049 17.6047 66.9187 17.6047C67.8022 17.6047 68.5247 16.719 68.768 14.3886C68.8267 13.8277 68.7399 13.3947 68.4798 13.3947Z" fill="#343433"/>
</svg>
