<svg width="68" height="24" viewBox="0 0 68 24" fill="none" xmlns="http://www.w3.org/2000/svg">
<g clip-path="url(#clip0_5_987)">
<path d="M21.2354 3.70966C21.1108 2.99259 20.8678 2.33887 20.5306 1.81361C20.1934 1.28835 19.7738 0.909868 19.3134 0.715862C17.6282 0 10.8463 0 10.8463 0C10.8463 0 4.06405 0.0217241 2.37906 0.737586C1.91877 0.931624 1.49914 1.31012 1.16196 1.83538C0.824783 2.36064 0.581817 3.01434 0.457259 3.73138C-0.0524755 8.39586 -0.250233 15.503 0.471204 19.9806C0.595762 20.6977 0.838728 21.3514 1.17591 21.8766C1.51309 22.4019 1.93271 22.7804 2.393 22.9744C4.07813 23.6903 10.8602 23.6903 10.8602 23.6903C10.8602 23.6903 17.6423 23.6903 19.3274 22.9744C19.7877 22.7804 20.2073 22.4019 20.5445 21.8766C20.8817 21.3514 21.1246 20.6977 21.2492 19.9806C21.7867 15.3097 21.9524 8.20697 21.2352 3.70986L21.2354 3.70966Z" fill="#FF0000"/>
<path d="M8.6875 16.9216L14.3137 11.8452L8.6875 6.76855V16.9216Z" fill="white"/>
<path d="M65.2428 6.87745C65.9808 6.87745 66.5379 7.09428 66.9278 7.50642C67.3177 7.91876 67.5964 8.56945 67.7635 9.45911C67.9305 10.3486 68.0001 11.5632 68.0001 13.1253V15.6637H64.4211V16.4446L64.4769 18.5923C64.5186 19.0697 64.5883 19.4168 64.6996 19.6337C64.8112 19.8507 64.9921 19.9591 65.2289 19.9591C65.5492 19.9591 65.7721 19.764 65.8834 19.3736C66.0087 18.983 66.0644 18.3321 66.0783 17.4426L67.9305 17.6162C67.9445 17.7463 67.9445 17.9199 67.9445 18.1368C67.9445 19.5035 67.7077 20.5233 67.2203 21.1957C66.7328 21.8681 66.0644 22.2153 65.187 22.2153C64.1286 22.2153 63.3906 21.6948 62.9728 20.6752C62.5551 19.6554 62.3322 18.0499 62.3322 15.9023V13.2772C62.3795 9.58924 62.7959 6.88821 65.2428 6.87745ZM39.4931 7.15945V18.0283C39.4931 18.6792 39.5348 19.1566 39.6323 19.4386C39.8301 20.0417 40.3426 19.8875 40.6211 19.5904C40.7819 19.4211 40.9115 19.1893 40.9971 18.918V7.15924H43.1278V21.9766H41.4566L41.2756 20.1542H41.2339C40.7744 21.521 40.0918 22.2151 39.1867 22.2151C37.7935 22.2097 37.4526 20.646 37.3714 19.0579L37.3661 18.9459C37.3561 18.7054 37.3502 18.4645 37.3485 18.2235V7.15945H39.493H39.4931ZM50.481 7.15945V18.0283C50.481 18.6792 50.5227 19.1566 50.6202 19.4386C50.818 20.0417 51.3304 19.8875 51.6089 19.5904C51.7697 19.4211 51.8993 19.1893 51.9849 18.918V7.15924H54.1156V21.9766H52.4445L52.2634 20.1542H52.2217C51.7622 21.521 51.0797 22.2151 50.1746 22.2151C48.7814 22.2097 48.4404 20.646 48.3593 19.0579L48.354 18.9459C48.344 18.7054 48.3381 18.4645 48.3363 18.2235V7.15945H50.481ZM33.3098 6.87745C34.0061 6.87745 34.5771 7.09428 34.9949 7.54986C35.4126 8.00545 35.7329 8.6998 35.9279 9.65421C36.1229 10.6088 36.2204 11.8887 36.2204 13.4725V15.6201C36.2204 17.2039 36.1229 18.4622 35.9279 19.4166C35.7329 20.3715 35.4265 21.0656 34.9949 21.5212C34.5633 21.955 33.9782 22.1936 33.2541 22.1936C32.502 22.2153 31.9171 21.9768 31.4855 21.5429C31.0538 21.0873 30.7473 20.393 30.5664 19.4386C30.3852 18.4839 30.3017 17.2256 30.3017 15.642V13.494C30.3017 11.9102 30.3992 10.6086 30.6081 9.654C30.817 8.67786 31.1372 7.98352 31.5829 7.54986C32.0285 7.1158 32.5995 6.87724 33.3098 6.87724V6.87745ZM57.458 0.933105V8.74304H57.472C57.6669 8.17904 57.9175 7.72345 58.2658 7.37628C58.5909 7.03567 58.974 6.85438 59.3659 6.85573C59.8812 6.85573 60.2711 7.07255 60.5636 7.48469C60.856 7.91876 61.0649 8.59118 61.1902 9.52407C61.3117 10.4278 61.3808 11.6777 61.385 13.2538L61.3851 13.4075V15.7504C61.3851 17.9415 61.2041 19.5687 60.8698 20.61C60.5219 21.6513 59.9926 22.1721 59.2684 22.1721C58.8646 22.1721 58.5024 22.0202 58.1683 21.7382C57.8727 21.4699 57.6277 21.0852 57.4577 20.6226L57.4301 20.5448H57.3884L57.1656 21.955H55.3969V0.933312H57.458V0.933105ZM48.935 1.69242V4.38228H46.8183V21.9766H44.7294V4.38249H42.5987V1.69262H48.9352L48.935 1.69242ZM25.9706 1.69242L25.9719 1.70069C25.9922 1.84159 26.2738 3.79159 26.5835 6.06352L26.6079 6.24352L26.6448 6.51559L26.6695 6.69828L26.6819 6.78993L26.7066 6.97366L26.719 7.06573L26.7435 7.25007L26.7794 7.51966C26.9886 9.0929 27.1882 10.6707 27.3076 11.802H27.3634C27.4777 10.7872 27.6439 9.48849 27.821 8.16249L27.8675 7.81614C27.8909 7.64276 27.9143 7.46938 27.9379 7.29642L27.9743 7.02807C28.2149 5.27086 28.4627 3.51607 28.7176 1.7638L28.7216 1.73586L28.728 1.69242H30.8587L28.3937 15.3817V21.955H26.2909V15.4032H26.277L23.8398 1.69221H25.9706V1.69242ZM33.2679 9.1769C32.9755 9.1769 32.7805 9.41566 32.6553 9.91469C32.5299 10.4135 32.4742 11.1728 32.4742 12.2361V16.8569C32.4742 17.9417 32.5299 18.7442 32.6413 19.2217C32.7528 19.6988 32.9617 19.9376 33.2679 19.9376C33.5604 19.9376 33.7693 19.6988 33.8947 19.2217C34.0201 18.7442 34.0757 17.9417 34.0757 16.8569V12.2359C34.0757 11.1728 34.0199 10.3918 33.8947 9.91448C33.7693 9.41566 33.5604 9.1769 33.2679 9.1769ZM57.834 9.61097C57.6643 9.85511 57.5435 10.1561 57.4717 10.5325L57.458 10.6088V19.0262C57.6307 19.4818 57.8758 19.7855 58.3075 19.8072C58.5303 19.8072 58.7112 19.6771 58.8507 19.4168C58.9899 19.1566 59.0873 18.7225 59.143 18.115C59.1965 17.532 59.2244 16.7288 59.2265 15.7059V13.6461C59.2265 12.4746 59.1986 11.5852 59.1569 10.956C59.1012 10.3268 59.0317 9.87124 58.9063 9.61097C58.6639 9.06849 58.1404 9.07511 57.834 9.61097ZM65.2011 9.11193C64.9643 9.13366 64.7971 9.24207 64.6996 9.43738C64.5883 9.65421 64.5186 9.97966 64.4769 10.457C64.4358 10.9246 64.4218 12.559 64.4211 12.6244V13.6895H65.9808V12.7502V12.7682C65.9799 13.0966 65.9755 12.5777 65.966 11.9406L65.9646 11.855C65.9559 11.2951 65.9431 10.6709 65.9252 10.457C65.8834 9.95793 65.8136 9.61076 65.7023 9.41566C65.5909 9.22035 65.4238 9.11193 65.201 9.11193H65.2011Z" fill="#282828"/>
</g>
<defs>
<clipPath id="clip0_5_987">
<rect width="68" height="24" fill="white"/>
</clipPath>
</defs>
</svg>
